<?xml version="1.0" encoding="utf-8"?>
<!-- Generator: Adobe Illustrator 27.5.0, SVG Export Plug-In . SVG Version: 6.00 Build 0)  -->
<svg version="1.1" id="Capa_1" xmlns="http://www.w3.org/2000/svg" xmlns:xlink="http://www.w3.org/1999/xlink" x="0px" y="0px"
	 viewBox="0 0 425.196 360.52" style="enable-background:new 0 0 425.196 360.52;" xml:space="preserve">
<rect x="0" style="fill:#FFFFFF;" width="425.196" height="360.521"/>
<g>
	<g>
		<g>
			<path style="fill:#FFFFFF;" d="M185.445,93.186c0,11.839-9.6,21.438-21.436,21.438c-11.842,0-21.438-9.599-21.438-21.438
				c0-11.839,9.596-21.436,21.438-21.436C175.846,71.749,185.445,81.347,185.445,93.186z"/>
			<path style="fill:#E74645;" d="M180.67,93.186c0,9.201-7.457,16.662-16.66,16.662c-9.203,0-16.662-7.46-16.662-16.662
				c0-9.201,7.459-16.661,16.662-16.661C173.213,76.525,180.67,83.985,180.67,93.186z"/>
			<g>
				<path style="fill:#6EBEBF;" d="M176.605,93.186c0,6.956-5.639,12.595-12.596,12.595c-6.957,0-12.594-5.639-12.594-12.595
					c0-6.957,5.637-12.595,12.594-12.595C170.967,80.59,176.605,86.229,176.605,93.186z"/>
				<path style="fill:#DADADA;" d="M164.027,97.112c-4.768-3.247-7.625-9.801-5.908-15.055c-3.986,2.112-6.703,6.3-6.703,11.128
					c0,6.956,5.637,12.595,12.594,12.595c4.861,0,9.07-2.758,11.17-6.79C171.432,99.729,166.791,98.996,164.027,97.112z"/>
				<polygon style="fill:#FFFFFF;" points="170.748,89.574 165.816,89.574 165.816,84.403 162.203,84.403 162.203,89.574 
					157.27,89.574 157.27,93.186 162.203,93.186 162.203,101.968 165.816,101.968 165.816,93.186 170.748,93.186 				"/>
				<path style="fill:#FFFFFF;" d="M163.102,82.98c-3.311,3.938,0.482,10.853,5.379,11.64c2.359,0.38,4.191,0.147,5.67-0.571
					c0.092-0.535,0.148-1.08,0.148-1.64c0-5.29-4.289-9.576-9.576-9.576C164.17,82.832,163.629,82.891,163.102,82.98z"/>
			</g>
		</g>
		<g>
			<rect x="108.857" y="133.668" style="fill:#F5E3BA;" width="110.305" height="41.615"/>
			<g>
				<rect x="30.486" y="165.055" style="fill:#C5B898;" width="78.371" height="29.566"/>
				<g>
					<g>
						<path style="fill:#FFFFFF;" d="M46.561,173.402h-8.934v12.871h8.934V173.402z M38.387,185.414v-11.151h7.418v11.151H38.387z"
							/>
						<g>
							<path style="fill:#C6C6C6;" d="M46.561,173.402h-8.934v12.871h8.934V173.402z M37.928,185.733v-11.79h8.186v11.79H37.928z"/>
							<rect x="38.387" y="174.263" style="fill:#06B3BF;" width="7.418" height="11.151"/>
						</g>
						<path style="fill:#FFFFFF;" d="M44.793,178.28c-0.549,0.073-1.111,0.234-1.578,0.545c-0.881,0.585-1.303,1.669-1.455,2.683
							c-0.152,0.987-0.053,2.148,0.611,2.944c0.023,0.025,0.041,0.05,0.064,0.076h2.811v-6.277
							C45.096,178.253,44.943,178.259,44.793,178.28z"/>
						<path style="fill:#DADADA;" d="M39.785,180.831c0.219-1.651,0.854-3.505,2.23-4.544c0.756-0.57,1.662-0.932,2.596-1.089
							c0.393-0.068,0.793-0.122,1.193-0.139v-0.795h-7.418v11.151h2.305C39.771,184.103,39.572,182.388,39.785,180.831z"/>
					</g>
					<g>
						<path style="fill:#FFFFFF;" d="M60.35,173.402h-8.934v12.871h8.934V173.402z M52.176,185.414v-11.151h7.416v11.151H52.176z"/>
						<g>
							<path style="fill:#C6C6C6;" d="M60.35,173.402h-8.934v12.871h8.934V173.402z M51.717,185.733v-11.79H59.9v11.79H51.717z"/>
							<rect x="52.176" y="174.263" style="fill:#06B3BF;" width="7.416" height="11.151"/>
						</g>
						<path style="fill:#FFFFFF;" d="M58.582,178.28c-0.553,0.073-1.113,0.234-1.578,0.545c-0.881,0.585-1.305,1.669-1.453,2.683
							c-0.152,0.987-0.059,2.148,0.607,2.944c0.023,0.025,0.043,0.05,0.066,0.076h2.81v-6.277
							C58.881,178.253,58.73,178.259,58.582,178.28z"/>
						<path style="fill:#DADADA;" d="M53.57,180.831c0.226-1.651,0.857-3.505,2.234-4.544c0.756-0.57,1.662-0.932,2.594-1.089
							c0.393-0.068,0.793-0.122,1.193-0.139v-0.795h-7.416v11.151h2.307C53.563,184.103,53.359,182.388,53.57,180.831z"/>
					</g>
					<g>
						<path style="fill:#FFFFFF;" d="M74.137,173.402h-8.932v12.871h8.932V173.402z M65.961,185.414v-11.151h7.42v11.151H65.961z"/>
						<g>
							<path style="fill:#C6C6C6;" d="M74.137,173.402h-8.932v12.871h8.932V173.402z M65.502,185.733v-11.79h8.191v11.79H65.502z"/>
							<rect x="65.961" y="174.263" style="fill:#06B3BF;" width="7.42" height="11.151"/>
						</g>
						<path style="fill:#FFFFFF;" d="M72.373,178.28c-0.553,0.073-1.115,0.234-1.582,0.545c-0.883,0.585-1.303,1.669-1.455,2.683
							c-0.148,0.987-0.055,2.148,0.615,2.944c0.02,0.025,0.039,0.05,0.063,0.076h2.809v-6.277
							C72.672,178.253,72.52,178.259,72.373,178.28z"/>
						<path style="fill:#DADADA;" d="M67.359,180.831c0.223-1.651,0.859-3.505,2.234-4.544c0.754-0.57,1.66-0.932,2.592-1.089
							c0.393-0.068,0.793-0.122,1.195-0.139v-0.795h-7.42v11.151h2.311C67.354,184.103,67.148,182.388,67.359,180.831z"/>
					</g>
					<g>
						<path style="fill:#FFFFFF;" d="M87.926,173.402h-8.934v12.871h8.934V173.402z M79.75,185.414v-11.151h7.418v11.151H79.75z"/>
						<g>
							<path style="fill:#C6C6C6;" d="M87.926,173.402h-8.934v12.871h8.934V173.402z M79.293,185.733v-11.79h8.186v11.79H79.293z"/>
							<rect x="79.75" y="174.263" style="fill:#06B3BF;" width="7.418" height="11.151"/>
						</g>
						<path style="fill:#FFFFFF;" d="M86.16,178.28c-0.551,0.073-1.115,0.234-1.58,0.545c-0.883,0.585-1.303,1.669-1.455,2.683
							c-0.15,0.987-0.053,2.148,0.613,2.944c0.018,0.025,0.039,0.05,0.063,0.076h2.811v-6.277
							C86.457,178.253,86.309,178.259,86.16,178.28z"/>
						<path style="fill:#DADADA;" d="M81.148,180.831c0.223-1.651,0.859-3.505,2.236-4.544c0.756-0.57,1.66-0.932,2.588-1.089
							c0.395-0.068,0.797-0.122,1.195-0.139v-0.795H79.75v11.151h2.313C81.139,184.103,80.938,182.388,81.148,180.831z"/>
					</g>
					<g>
						<path style="fill:#FFFFFF;" d="M101.717,173.402h-8.932v12.871h8.932V173.402z M93.541,185.414v-11.151h7.418v11.151H93.541z"
							/>
						<g>
							<path style="fill:#C6C6C6;" d="M101.717,173.402h-8.932v12.871h8.932V173.402z M93.084,185.733v-11.79h8.184v11.79H93.084z"
								/>
							<rect x="93.541" y="174.263" style="fill:#06B3BF;" width="7.418" height="11.151"/>
						</g>
						<path style="fill:#FFFFFF;" d="M99.945,178.28c-0.549,0.073-1.111,0.234-1.576,0.545c-0.883,0.585-1.307,1.669-1.455,2.683
							c-0.15,0.987-0.057,2.148,0.611,2.944c0.021,0.025,0.045,0.05,0.066,0.076h2.809v-6.277
							C100.248,178.253,100.096,178.259,99.945,178.28z"/>
						<path style="fill:#DADADA;" d="M94.939,180.831c0.219-1.651,0.855-3.505,2.232-4.544c0.752-0.57,1.66-0.932,2.59-1.089
							c0.394-0.068,0.795-0.122,1.197-0.139v-0.795h-7.418v11.151h2.305C94.928,184.103,94.725,182.388,94.939,180.831z"/>
					</g>
				</g>
				<g>
					<rect x="26.693" y="156.318" style="fill:#A69C81;" width="82.219" height="9.514"/>
					<rect x="26.693" y="161.075" style="fill:#C6C6C6;" width="82.219" height="4.757"/>
				</g>
			</g>
			<g>
				<rect x="217.076" y="164.868" style="fill:#C5B898;" width="78.371" height="29.568"/>
				<g>
					<g>
						<path style="fill:#FFFFFF;" d="M279.369,186.087h8.932v-12.871h-8.932V186.087z M280.127,185.227v-11.151h7.418v11.151
							H280.127z"/>
						<g>
							<path style="fill:#C6C6C6;" d="M279.369,186.087h8.932v-12.871h-8.932V186.087z M279.82,185.547v-11.791h8.184v11.791H279.82
								z"/>
							<rect x="280.127" y="174.076" style="fill:#06B3BF;" width="7.418" height="11.151"/>
						</g>
						<path style="fill:#FFFFFF;" d="M281.139,178.093c0.547,0.073,1.113,0.234,1.58,0.545c0.879,0.587,1.299,1.669,1.451,2.684
							c0.154,0.988,0.057,2.148-0.609,2.943c-0.023,0.026-0.041,0.05-0.063,0.076h-2.813v-6.277
							C280.836,178.067,280.986,178.072,281.139,178.093z"/>
						<path style="fill:#DADADA;" d="M286.148,180.644c-0.223-1.648-0.859-3.504-2.234-4.544c-0.754-0.57-1.66-0.93-2.594-1.088
							c-0.391-0.067-0.791-0.121-1.193-0.14v-0.795h7.418v11.151h-2.309C286.16,183.916,286.359,182.201,286.148,180.644z"/>
					</g>
					<g>
						<path style="fill:#FFFFFF;" d="M265.582,186.087h8.932v-12.871h-8.932V186.087z M266.344,185.227v-11.151h7.414v11.151
							H266.344z"/>
						<g>
							<path style="fill:#C6C6C6;" d="M265.582,186.087h8.932v-12.871h-8.932V186.087z M266.029,185.547v-11.791h8.186v11.791
								H266.029z"/>
							<rect x="266.344" y="174.076" style="fill:#06B3BF;" width="7.414" height="11.151"/>
						</g>
						<path style="fill:#FFFFFF;" d="M267.35,178.093c0.551,0.073,1.113,0.234,1.58,0.545c0.881,0.587,1.303,1.669,1.455,2.684
							c0.148,0.988,0.053,2.148-0.609,2.943c-0.025,0.026-0.045,0.05-0.07,0.076h-2.81v-6.277
							C267.053,178.067,267.199,178.072,267.35,178.093z"/>
						<path style="fill:#DADADA;" d="M272.361,180.644c-0.225-1.648-0.859-3.504-2.234-4.544c-0.754-0.57-1.66-0.93-2.592-1.088
							c-0.393-0.067-0.795-0.121-1.191-0.14v-0.795h7.414v11.151h-2.309C272.371,183.916,272.572,182.201,272.361,180.644z"/>
					</g>
					<g>
						<path style="fill:#FFFFFF;" d="M251.795,186.087h8.934v-12.871h-8.934V186.087z M252.551,185.227v-11.151h7.418v11.151
							H252.551z"/>
						<g>
							<path style="fill:#C6C6C6;" d="M251.795,186.087h8.934v-12.871h-8.934V186.087z M252.242,185.547v-11.791h8.184v11.791
								H252.242z"/>
							<rect x="252.551" y="174.076" style="fill:#06B3BF;" width="7.418" height="11.151"/>
						</g>
						<path style="fill:#FFFFFF;" d="M253.561,178.093c0.549,0.073,1.113,0.234,1.58,0.545c0.883,0.587,1.303,1.669,1.453,2.684
							c0.152,0.988,0.055,2.148-0.609,2.943c-0.021,0.026-0.043,0.05-0.066,0.076h-2.807v-6.277
							C253.262,178.067,253.412,178.072,253.561,178.093z"/>
						<path style="fill:#DADADA;" d="M258.572,180.644c-0.225-1.648-0.859-3.504-2.234-4.544c-0.754-0.57-1.662-0.93-2.592-1.088
							c-0.395-0.067-0.793-0.121-1.195-0.14v-0.795h7.418v11.151h-2.309C258.58,183.916,258.781,182.201,258.572,180.644z"/>
					</g>
					<g>
						<path style="fill:#FFFFFF;" d="M238.006,186.087h8.934v-12.871h-8.934V186.087z M238.764,185.227v-11.151h7.418v11.151
							H238.764z"/>
						<g>
							<path style="fill:#C6C6C6;" d="M238.006,186.087h8.934v-12.871h-8.934V186.087z M238.451,185.547v-11.791h8.188v11.791
								H238.451z"/>
							<rect x="238.764" y="174.076" style="fill:#06B3BF;" width="7.418" height="11.151"/>
						</g>
						<path style="fill:#FFFFFF;" d="M239.771,178.093c0.553,0.073,1.115,0.234,1.58,0.545c0.881,0.587,1.303,1.669,1.455,2.684
							c0.15,0.988,0.053,2.148-0.613,2.943c-0.018,0.026-0.039,0.05-0.063,0.076h-2.811v-6.277
							C239.473,178.067,239.625,178.072,239.771,178.093z"/>
						<path style="fill:#DADADA;" d="M244.785,180.644c-0.225-1.648-0.861-3.504-2.238-4.544c-0.752-0.57-1.66-0.93-2.588-1.088
							c-0.396-0.067-0.795-0.121-1.195-0.14v-0.795h7.418v11.151h-2.309C244.791,183.916,244.994,182.201,244.785,180.644z"/>
					</g>
					<g>
						<path style="fill:#FFFFFF;" d="M224.217,186.087h8.932v-12.871h-8.932V186.087z M224.973,185.227v-11.151h7.42v11.151H224.973
							z"/>
						<g>
							<path style="fill:#C6C6C6;" d="M224.217,186.087h8.932v-12.871h-8.932V186.087z M224.668,185.547v-11.791h8.182v11.791
								H224.668z"/>
							<rect x="224.973" y="174.076" style="fill:#06B3BF;" width="7.42" height="11.151"/>
						</g>
						<path style="fill:#FFFFFF;" d="M225.984,178.093c0.553,0.073,1.113,0.234,1.58,0.545c0.881,0.587,1.301,1.669,1.455,2.684
							c0.148,0.988,0.055,2.148-0.613,2.943c-0.02,0.026-0.041,0.05-0.064,0.076h-2.809v-6.277
							C225.686,178.067,225.836,178.072,225.984,178.093z"/>
						<path style="fill:#DADADA;" d="M230.994,180.644c-0.221-1.648-0.857-3.504-2.234-4.544c-0.756-0.57-1.66-0.93-2.592-1.088
							c-0.392-0.067-0.793-0.121-1.195-0.14v-0.795h7.42v11.151h-2.307C231.004,183.916,231.207,182.201,230.994,180.644z"/>
					</g>
				</g>
				<g>
					<rect x="217.021" y="156.131" style="fill:#A69C81;" width="82.215" height="9.514"/>
					<rect x="217.021" y="160.888" style="fill:#C6C6C6;" width="82.215" height="4.757"/>
				</g>
			</g>
			<rect x="100.154" y="184.799" style="fill:#F5E3BA;" width="127.818" height="97.645"/>
			<g>
				<g>
					<path style="fill:#FFFFFF;" d="M121.486,192.328h-12.574v18.112h12.574V192.328z M109.979,209.232v-15.695h10.438v15.695
						H109.979z"/>
					<g>
						<path style="fill:#C6C6C6;" d="M121.486,192.328h-12.574v18.112h12.574V192.328z M109.34,209.681v-16.593h11.512v16.593
							H109.34z"/>
						<rect x="109.979" y="193.537" style="fill:#06B3BF;" width="10.438" height="15.695"/>
					</g>
					<path style="fill:#FFFFFF;" d="M118.998,199.19c-0.775,0.104-1.566,0.331-2.225,0.768c-1.236,0.828-1.83,2.351-2.045,3.777
						c-0.213,1.389-0.08,3.023,0.857,4.145c0.029,0.035,0.063,0.071,0.094,0.105h3.951v-8.835
						C119.418,199.154,119.205,199.164,118.998,199.19z"/>
					<path style="fill:#DADADA;" d="M111.941,202.781c0.316-2.322,1.211-4.933,3.148-6.394c1.061-0.803,2.334-1.312,3.648-1.535
						c0.555-0.094,1.119-0.172,1.678-0.194v-1.12h-10.438v15.695h3.248C111.934,207.389,111.646,204.973,111.941,202.781z"/>
				</g>
				<g>
					<path style="fill:#FFFFFF;" d="M140.893,192.328h-12.576v18.112h12.576V192.328z M129.383,209.232v-15.695h10.441v15.695
						H129.383z"/>
					<g>
						<path style="fill:#C6C6C6;" d="M140.893,192.328h-12.576v18.112h12.576V192.328z M128.742,209.681v-16.593h11.518v16.593
							H128.742z"/>
						<rect x="129.383" y="193.537" style="fill:#06B3BF;" width="10.441" height="15.695"/>
					</g>
					<path style="fill:#FFFFFF;" d="M138.406,199.19c-0.775,0.104-1.568,0.331-2.225,0.768c-1.24,0.828-1.832,2.351-2.049,3.777
						c-0.209,1.389-0.078,3.023,0.861,4.145c0.029,0.035,0.063,0.071,0.094,0.105h3.951v-8.835
						C138.826,199.154,138.613,199.164,138.406,199.19z"/>
					<path style="fill:#DADADA;" d="M131.352,202.781c0.314-2.322,1.209-4.933,3.146-6.394c1.061-0.803,2.334-1.312,3.645-1.535
						c0.555-0.094,1.119-0.172,1.682-0.194v-1.12h-10.441v15.695h3.252C131.34,207.389,131.053,204.973,131.352,202.781z"/>
				</g>
				<g>
					<path style="fill:#FFFFFF;" d="M160.299,192.328h-12.574v18.112h12.574V192.328z M148.793,209.232v-15.695h10.44v15.695
						H148.793z"/>
					<g>
						<path style="fill:#C6C6C6;" d="M160.299,192.328h-12.574v18.112h12.574V192.328z M148.15,209.681v-16.593h11.516v16.593
							H148.15z"/>
						<rect x="148.793" y="193.537" style="fill:#06B3BF;" width="10.439" height="15.695"/>
					</g>
					<path style="fill:#FFFFFF;" d="M157.814,199.19c-0.775,0.104-1.57,0.331-2.227,0.768c-1.24,0.828-1.836,2.351-2.049,3.777
						c-0.211,1.389-0.076,3.023,0.863,4.145c0.027,0.035,0.059,0.071,0.088,0.105h3.957v-8.835
						C158.232,199.154,158.02,199.164,157.814,199.19z"/>
					<path style="fill:#DADADA;" d="M150.758,202.781c0.313-2.322,1.209-4.933,3.146-6.394c1.061-0.803,2.336-1.312,3.645-1.535
						c0.553-0.094,1.121-0.172,1.684-0.194v-1.12h-10.44v15.695h3.248C150.746,207.389,150.459,204.973,150.758,202.781z"/>
				</g>
				<g>
					<path style="fill:#FFFFFF;" d="M179.705,192.328h-12.572v18.112h12.572V192.328z M168.199,209.232v-15.695h10.441v15.695
						H168.199z"/>
					<g>
						<path style="fill:#C6C6C6;" d="M179.705,192.328h-12.572v18.112h12.572V192.328z M167.557,209.681v-16.593h11.518v16.593
							H167.557z"/>
						<rect x="168.199" y="193.537" style="fill:#06B3BF;" width="10.441" height="15.695"/>
					</g>
					<path style="fill:#FFFFFF;" d="M177.219,199.19c-0.775,0.104-1.566,0.331-2.225,0.768c-1.24,0.828-1.83,2.351-2.047,3.777
						c-0.213,1.389-0.078,3.023,0.861,4.145c0.029,0.035,0.061,0.071,0.09,0.105h3.957v-8.835
						C177.641,199.154,177.426,199.164,177.219,199.19z"/>
					<path style="fill:#DADADA;" d="M170.164,202.781c0.314-2.322,1.209-4.933,3.143-6.394c1.064-0.803,2.342-1.312,3.65-1.535
						c0.553-0.094,1.119-0.172,1.684-0.194v-1.12h-10.441v15.695h3.25C170.152,207.389,169.863,204.973,170.164,202.781z"/>
				</g>
				<g>
					<path style="fill:#FFFFFF;" d="M199.109,192.328h-12.568v18.112h12.568V192.328z M187.605,209.232v-15.695h10.44v15.695
						H187.605z"/>
					<g>
						<path style="fill:#C6C6C6;" d="M199.109,192.328h-12.568v18.112h12.568V192.328z M186.963,209.681v-16.593h11.517v16.593
							H186.963z"/>
						<rect x="187.605" y="193.537" style="fill:#06B3BF;" width="10.439" height="15.695"/>
					</g>
					<path style="fill:#FFFFFF;" d="M196.627,199.19c-0.777,0.104-1.57,0.331-2.227,0.768c-1.24,0.828-1.832,2.351-2.049,3.777
						c-0.209,1.389-0.074,3.023,0.859,4.145c0.035,0.035,0.064,0.071,0.094,0.105h3.953v-8.835
						C197.047,199.154,196.832,199.164,196.627,199.19z"/>
					<path style="fill:#DADADA;" d="M189.572,202.781c0.316-2.322,1.209-4.933,3.143-6.394c1.064-0.803,2.338-1.312,3.648-1.535
						c0.555-0.094,1.119-0.172,1.682-0.194v-1.12h-10.44v15.695h3.246C189.557,207.389,189.271,204.973,189.572,202.781z"/>
				</g>
				<g>
					<path style="fill:#FFFFFF;" d="M219.217,192.328h-12.574v18.112h12.574V192.328z M207.711,209.232v-15.695h10.439v15.695
						H207.711z"/>
					<g>
						<path style="fill:#C6C6C6;" d="M219.217,192.328h-12.574v18.112h12.574V192.328z M207.068,209.681v-16.593h11.521v16.593
							H207.068z"/>
						<rect x="207.711" y="193.537" style="fill:#06B3BF;" width="10.439" height="15.695"/>
					</g>
					<path style="fill:#FFFFFF;" d="M216.729,199.19c-0.773,0.104-1.566,0.331-2.225,0.768c-1.236,0.828-1.834,2.351-2.047,3.777
						c-0.209,1.389-0.072,3.023,0.859,4.145c0.033,0.035,0.066,0.071,0.096,0.105h3.953v-8.835
						C217.15,199.154,216.939,199.164,216.729,199.19z"/>
					<path style="fill:#DADADA;" d="M209.674,202.781c0.316-2.322,1.211-4.933,3.148-6.394c1.061-0.803,2.338-1.312,3.646-1.535
						c0.555-0.094,1.119-0.172,1.682-0.194v-1.12h-10.439v15.695h3.25C209.662,207.389,209.377,204.973,209.674,202.781z"/>
				</g>
			</g>
			<g>
				<g>
					<path style="fill:#FFFFFF;" d="M121.486,214.428h-12.574v18.115h12.574V214.428z M109.979,231.333v-15.694h10.438v15.694
						H109.979z"/>
					<g>
						<path style="fill:#C6C6C6;" d="M121.486,214.428h-12.574v18.115h12.574V214.428z M109.34,231.784v-16.596h11.512v16.596
							H109.34z"/>
						<rect x="109.979" y="215.639" style="fill:#06B3BF;" width="10.438" height="15.694"/>
					</g>
					<path style="fill:#FFFFFF;" d="M118.998,221.292c-0.775,0.104-1.566,0.33-2.225,0.767c-1.236,0.826-1.83,2.352-2.045,3.777
						c-0.213,1.389-0.08,3.024,0.857,4.144c0.029,0.036,0.063,0.071,0.094,0.107h3.951v-8.836
						C119.418,221.254,119.205,221.264,118.998,221.292z"/>
					<path style="fill:#DADADA;" d="M111.941,224.882c0.316-2.323,1.211-4.934,3.148-6.396c1.061-0.803,2.334-1.311,3.648-1.535
						c0.555-0.094,1.119-0.17,1.678-0.193v-1.12h-10.438v15.694h3.248C111.934,229.49,111.646,227.072,111.941,224.882z"/>
				</g>
				<g>
					<path style="fill:#FFFFFF;" d="M140.893,214.428h-12.576v18.115h12.576V214.428z M129.383,231.333v-15.694h10.441v15.694
						H129.383z"/>
					<g>
						<path style="fill:#C6C6C6;" d="M140.893,214.428h-12.576v18.115h12.576V214.428z M128.742,231.784v-16.596h11.518v16.596
							H128.742z"/>
						<rect x="129.383" y="215.639" style="fill:#06B3BF;" width="10.441" height="15.694"/>
					</g>
					<path style="fill:#FFFFFF;" d="M138.406,221.292c-0.775,0.104-1.568,0.33-2.225,0.767c-1.24,0.826-1.832,2.352-2.049,3.777
						c-0.209,1.389-0.078,3.024,0.861,4.144c0.029,0.036,0.063,0.071,0.094,0.107h3.951v-8.836
						C138.826,221.254,138.613,221.264,138.406,221.292z"/>
					<path style="fill:#DADADA;" d="M131.352,224.882c0.314-2.323,1.209-4.934,3.146-6.396c1.061-0.803,2.334-1.311,3.645-1.535
						c0.555-0.094,1.119-0.17,1.682-0.193v-1.12h-10.441v15.694h3.252C131.34,229.49,131.053,227.072,131.352,224.882z"/>
				</g>
				<g>
					<path style="fill:#FFFFFF;" d="M160.299,214.428h-12.574v18.115h12.574V214.428z M148.793,231.333v-15.694h10.44v15.694
						H148.793z"/>
					<g>
						<path style="fill:#C6C6C6;" d="M160.299,214.428h-12.574v18.115h12.574V214.428z M148.15,231.784v-16.596h11.516v16.596
							H148.15z"/>
						<rect x="148.793" y="215.639" style="fill:#06B3BF;" width="10.439" height="15.694"/>
					</g>
					<path style="fill:#FFFFFF;" d="M157.814,221.292c-0.775,0.104-1.57,0.33-2.227,0.767c-1.24,0.826-1.836,2.352-2.049,3.777
						c-0.211,1.389-0.076,3.024,0.863,4.144c0.027,0.036,0.059,0.071,0.088,0.107h3.957v-8.836
						C158.232,221.254,158.02,221.264,157.814,221.292z"/>
					<path style="fill:#DADADA;" d="M150.758,224.882c0.313-2.323,1.209-4.934,3.146-6.396c1.061-0.803,2.336-1.311,3.645-1.535
						c0.553-0.094,1.121-0.17,1.684-0.193v-1.12h-10.44v15.694h3.248C150.746,229.49,150.459,227.072,150.758,224.882z"/>
				</g>
				<g>
					<path style="fill:#FFFFFF;" d="M179.705,214.428h-12.572v18.115h12.572V214.428z M168.199,231.333v-15.694h10.441v15.694
						H168.199z"/>
					<g>
						<path style="fill:#C6C6C6;" d="M179.705,214.428h-12.572v18.115h12.572V214.428z M167.557,231.784v-16.596h11.518v16.596
							H167.557z"/>
						<rect x="168.199" y="215.639" style="fill:#06B3BF;" width="10.441" height="15.694"/>
					</g>
					<path style="fill:#FFFFFF;" d="M177.219,221.292c-0.775,0.104-1.566,0.33-2.225,0.767c-1.24,0.826-1.83,2.352-2.047,3.777
						c-0.213,1.389-0.078,3.024,0.861,4.144c0.029,0.036,0.061,0.071,0.09,0.107h3.957v-8.836
						C177.641,221.254,177.426,221.264,177.219,221.292z"/>
					<path style="fill:#DADADA;" d="M170.164,224.882c0.314-2.323,1.209-4.934,3.143-6.396c1.064-0.803,2.342-1.311,3.65-1.535
						c0.553-0.094,1.119-0.17,1.684-0.193v-1.12h-10.441v15.694h3.25C170.152,229.49,169.863,227.072,170.164,224.882z"/>
				</g>
				<g>
					<path style="fill:#FFFFFF;" d="M199.109,214.428h-12.568v18.115h12.568V214.428z M187.605,231.333v-15.694h10.44v15.694
						H187.605z"/>
					<g>
						<path style="fill:#C6C6C6;" d="M199.109,214.428h-12.568v18.115h12.568V214.428z M186.963,231.784v-16.596h11.517v16.596
							H186.963z"/>
						<rect x="187.605" y="215.639" style="fill:#06B3BF;" width="10.439" height="15.694"/>
					</g>
					<path style="fill:#FFFFFF;" d="M196.627,221.292c-0.777,0.104-1.57,0.33-2.227,0.767c-1.24,0.826-1.832,2.352-2.049,3.777
						c-0.209,1.389-0.074,3.024,0.859,4.144c0.035,0.036,0.064,0.071,0.094,0.107h3.953v-8.836
						C197.047,221.254,196.832,221.264,196.627,221.292z"/>
					<path style="fill:#DADADA;" d="M189.572,224.882c0.316-2.323,1.209-4.934,3.143-6.396c1.064-0.803,2.338-1.311,3.648-1.535
						c0.555-0.094,1.119-0.17,1.682-0.193v-1.12h-10.44v15.694h3.246C189.557,229.49,189.271,227.072,189.572,224.882z"/>
				</g>
				<g>
					<path style="fill:#FFFFFF;" d="M219.217,214.428h-12.574v18.115h12.574V214.428z M207.711,231.333v-15.694h10.439v15.694
						H207.711z"/>
					<g>
						<path style="fill:#C6C6C6;" d="M219.217,214.428h-12.574v18.115h12.574V214.428z M207.068,231.784v-16.596h11.521v16.596
							H207.068z"/>
						<rect x="207.711" y="215.639" style="fill:#06B3BF;" width="10.439" height="15.694"/>
					</g>
					<path style="fill:#FFFFFF;" d="M216.729,221.292c-0.773,0.104-1.566,0.33-2.225,0.767c-1.236,0.826-1.834,2.352-2.047,3.777
						c-0.209,1.389-0.072,3.024,0.859,4.144c0.033,0.036,0.066,0.071,0.096,0.107h3.953v-8.836
						C217.15,221.254,216.939,221.264,216.729,221.292z"/>
					<path style="fill:#DADADA;" d="M209.674,224.882c0.316-2.323,1.211-4.934,3.148-6.396c1.061-0.803,2.338-1.311,3.646-1.535
						c0.555-0.094,1.119-0.17,1.682-0.193v-1.12h-10.439v15.694h3.25C209.662,229.49,209.377,227.072,209.674,224.882z"/>
				</g>
			</g>
			<rect x="227.973" y="203.568" style="fill:#C5B898;" width="67.414" height="78.876"/>
			<g>
				<g>
					<g>
						<path style="fill:#FFFFFF;" d="M248.949,210.556h-12.57v18.113h12.57V210.556z M237.443,227.459v-15.693h10.441v15.693
							H237.443z"/>
						<g>
							<path style="fill:#C6C6C6;" d="M248.949,210.556h-12.57v18.113h12.57V210.556z M236.797,227.909v-16.595h11.52v16.595
								H236.797z"/>
							<rect x="237.443" y="211.766" style="fill:#06B3BF;" width="10.441" height="15.693"/>
						</g>
						<path style="fill:#FFFFFF;" d="M246.461,217.419c-0.773,0.104-1.566,0.329-2.223,0.765c-1.24,0.826-1.832,2.352-2.047,3.779
							c-0.211,1.388-0.078,3.021,0.861,4.144c0.029,0.034,0.059,0.07,0.09,0.104h3.955v-8.834
							C246.887,217.381,246.67,217.39,246.461,217.419z"/>
						<path style="fill:#DADADA;" d="M239.41,221.009c0.314-2.322,1.207-4.934,3.143-6.397c1.064-0.802,2.338-1.31,3.648-1.532
							c0.553-0.096,1.117-0.174,1.684-0.196v-1.118h-10.441v15.693h3.246C239.393,225.615,239.111,223.199,239.41,221.009z"/>
					</g>
					<g>
						<path style="fill:#FFFFFF;" d="M268.355,210.556h-12.57v18.113h12.57V210.556z M256.852,227.459v-15.693h10.438v15.693
							H256.852z"/>
						<g>
							<path style="fill:#C6C6C6;" d="M268.355,210.556h-12.57v18.113h12.57V210.556z M256.205,227.909v-16.595h11.52v16.595
								H256.205z"/>
							<rect x="256.852" y="211.766" style="fill:#06B3BF;" width="10.438" height="15.693"/>
						</g>
						<path style="fill:#FFFFFF;" d="M265.871,217.419c-0.775,0.104-1.57,0.329-2.227,0.765c-1.238,0.826-1.832,2.352-2.045,3.779
							c-0.213,1.388-0.078,3.021,0.859,4.144c0.031,0.034,0.061,0.07,0.09,0.104h3.953v-8.834
							C266.291,217.381,266.078,217.39,265.871,217.419z"/>
						<path style="fill:#DADADA;" d="M258.816,221.009c0.314-2.322,1.211-4.934,3.145-6.397c1.063-0.802,2.338-1.31,3.646-1.532
							c0.555-0.096,1.119-0.174,1.682-0.196v-1.118h-10.438v15.693h3.246C258.803,225.615,258.52,223.199,258.816,221.009z"/>
					</g>
					<g>
						<path style="fill:#FFFFFF;" d="M287.764,210.556h-12.574v18.113h12.574V210.556z M276.256,227.459v-15.693h10.438v15.693
							H276.256z"/>
						<g>
							<path style="fill:#C6C6C6;" d="M287.764,210.556h-12.574v18.113h12.574V210.556z M275.613,227.909v-16.595h11.522v16.595
								H275.613z"/>
							<rect x="276.256" y="211.766" style="fill:#06B3BF;" width="10.438" height="15.693"/>
						</g>
						<path style="fill:#FFFFFF;" d="M285.277,217.419c-0.775,0.104-1.566,0.329-2.227,0.765c-1.236,0.826-1.83,2.352-2.045,3.779
							c-0.211,1.388-0.076,3.021,0.861,4.144c0.027,0.034,0.061,0.07,0.088,0.104h3.955v-8.834
							C285.697,217.381,285.486,217.39,285.277,217.419z"/>
						<path style="fill:#DADADA;" d="M278.223,221.009c0.316-2.322,1.207-4.934,3.147-6.397c1.059-0.802,2.334-1.31,3.646-1.532
							c0.553-0.096,1.121-0.174,1.678-0.196v-1.118h-10.438v15.693h3.25C278.211,225.615,277.926,223.199,278.223,221.009z"/>
					</g>
				</g>
				<g>
					<g>
						<path style="fill:#FFFFFF;" d="M248.168,232.813H235.6v18.113h12.568V232.813z M236.666,249.715v-15.692h10.438v15.692
							H236.666z"/>
						<g>
							<path style="fill:#C6C6C6;" d="M248.168,232.813H235.6v18.113h12.568V232.813z M236.021,250.167v-16.595h11.518v16.595
								H236.021z"/>
							<rect x="236.666" y="234.023" style="fill:#06B3BF;" width="10.438" height="15.692"/>
						</g>
						<path style="fill:#FFFFFF;" d="M245.684,239.676c-0.775,0.104-1.566,0.331-2.225,0.766c-1.242,0.828-1.832,2.353-2.047,3.78
							c-0.211,1.386-0.078,3.021,0.861,4.141c0.027,0.036,0.059,0.071,0.088,0.107h3.957v-8.836
							C246.105,239.64,245.891,239.646,245.684,239.676z"/>
						<path style="fill:#DADADA;" d="M238.629,243.268c0.316-2.324,1.211-4.936,3.145-6.399c1.063-0.802,2.34-1.311,3.648-1.532
							c0.553-0.094,1.119-0.172,1.682-0.195v-1.12h-10.438v15.692h3.248C238.619,247.873,238.33,245.458,238.629,243.268z"/>
					</g>
					<g>
						<path style="fill:#FFFFFF;" d="M267.576,232.813h-12.574v18.113h12.574V232.813z M256.068,249.715v-15.692h10.441v15.692
							H256.068z"/>
						<g>
							<path style="fill:#C6C6C6;" d="M267.576,232.813h-12.574v18.113h12.574V232.813z M255.426,250.167v-16.595h11.521v16.595
								H255.426z"/>
							<rect x="256.068" y="234.023" style="fill:#06B3BF;" width="10.441" height="15.692"/>
						</g>
						<path style="fill:#FFFFFF;" d="M265.088,239.676c-0.773,0.104-1.568,0.331-2.221,0.766c-1.24,0.828-1.832,2.353-2.049,3.78
							c-0.211,1.386-0.076,3.021,0.859,4.141c0.033,0.036,0.063,0.071,0.096,0.107h3.951v-8.836
							C265.512,239.64,265.301,239.646,265.088,239.676z"/>
						<path style="fill:#DADADA;" d="M258.035,243.268c0.315-2.324,1.211-4.936,3.147-6.399c1.06-0.802,2.336-1.311,3.645-1.532
							c0.557-0.094,1.119-0.172,1.684-0.195v-1.12h-10.441v15.692h3.25C258.023,247.873,257.738,245.458,258.035,243.268z"/>
					</g>
					<g>
						<path style="fill:#FFFFFF;" d="M286.982,232.813H274.41v18.113h12.572V232.813z M275.477,249.715v-15.692h10.436v15.692
							H275.477z"/>
						<g>
							<path style="fill:#C6C6C6;" d="M286.982,232.813H274.41v18.113h12.572V232.813z M274.834,250.167v-16.595h11.52v16.595
								H274.834z"/>
							<rect x="275.477" y="234.023" style="fill:#06B3BF;" width="10.436" height="15.692"/>
						</g>
						<path style="fill:#FFFFFF;" d="M284.496,239.676c-0.773,0.104-1.568,0.331-2.227,0.766c-1.236,0.828-1.83,2.353-2.043,3.78
							c-0.211,1.386-0.078,3.021,0.859,4.141c0.029,0.036,0.059,0.071,0.092,0.107h3.953v-8.836
							C284.92,239.64,284.703,239.646,284.496,239.676z"/>
						<path style="fill:#DADADA;" d="M277.443,243.268c0.313-2.324,1.211-4.936,3.145-6.399c1.061-0.802,2.338-1.311,3.645-1.532
							c0.555-0.094,1.121-0.172,1.68-0.195v-1.12h-10.436v15.692h3.246C277.432,247.873,277.146,245.458,277.443,243.268z"/>
					</g>
				</g>
				<g>
					<g>
						<path style="fill:#FFFFFF;" d="M248.168,257.345H235.6v18.11h12.568V257.345z M236.666,274.244v-15.693h10.438v15.693H236.666
							z"/>
						<g>
							<path style="fill:#C6C6C6;" d="M248.168,257.345H235.6v18.11h12.568V257.345z M236.021,274.695v-16.592h11.518v16.592
								H236.021z"/>
							<rect x="236.666" y="258.551" style="fill:#06B3BF;" width="10.438" height="15.693"/>
						</g>
						<path style="fill:#FFFFFF;" d="M245.684,264.204c-0.775,0.104-1.566,0.331-2.225,0.77c-1.242,0.824-1.832,2.349-2.047,3.777
							c-0.211,1.388-0.078,3.021,0.861,4.143c0.027,0.036,0.059,0.069,0.088,0.104h3.957v-8.836
							C246.105,264.169,245.891,264.178,245.684,264.204z"/>
						<path style="fill:#DADADA;" d="M238.629,267.796c0.316-2.323,1.211-4.936,3.145-6.396c1.063-0.801,2.34-1.311,3.648-1.535
							c0.553-0.094,1.119-0.171,1.682-0.195v-1.12h-10.438v15.693h3.248C238.619,272.401,238.33,269.986,238.629,267.796z"/>
					</g>
					<g>
						<path style="fill:#FFFFFF;" d="M267.576,257.345h-12.574v18.11h12.574V257.345z M256.068,274.244v-15.693h10.441v15.693
							H256.068z"/>
						<g>
							<path style="fill:#C6C6C6;" d="M267.576,257.345h-12.574v18.11h12.574V257.345z M255.426,274.695v-16.592h11.521v16.592
								H255.426z"/>
							<rect x="256.068" y="258.551" style="fill:#06B3BF;" width="10.441" height="15.693"/>
						</g>
						<path style="fill:#FFFFFF;" d="M265.088,264.204c-0.773,0.104-1.568,0.331-2.221,0.77c-1.24,0.824-1.832,2.349-2.049,3.777
							c-0.211,1.388-0.076,3.021,0.859,4.143c0.033,0.036,0.063,0.069,0.096,0.104h3.951v-8.836
							C265.512,264.169,265.301,264.178,265.088,264.204z"/>
						<path style="fill:#DADADA;" d="M258.035,267.796c0.315-2.323,1.211-4.936,3.147-6.396c1.06-0.801,2.336-1.311,3.645-1.535
							c0.557-0.094,1.119-0.171,1.684-0.195v-1.12h-10.441v15.693h3.25C258.023,272.401,257.738,269.986,258.035,267.796z"/>
					</g>
					<g>
						<path style="fill:#FFFFFF;" d="M286.982,257.345H274.41v18.11h12.572V257.345z M275.477,274.244v-15.693h10.436v15.693
							H275.477z"/>
						<g>
							<path style="fill:#C6C6C6;" d="M286.982,257.345H274.41v18.11h12.572V257.345z M274.834,274.695v-16.592h11.52v16.592
								H274.834z"/>
							<rect x="275.477" y="258.551" style="fill:#06B3BF;" width="10.436" height="15.693"/>
						</g>
						<path style="fill:#FFFFFF;" d="M284.496,264.204c-0.773,0.104-1.568,0.331-2.227,0.77c-1.236,0.824-1.83,2.349-2.043,3.777
							c-0.211,1.388-0.078,3.021,0.859,4.143c0.029,0.036,0.059,0.069,0.092,0.104h3.953v-8.836
							C284.92,264.169,284.703,264.178,284.496,264.204z"/>
						<path style="fill:#DADADA;" d="M277.443,267.796c0.313-2.323,1.211-4.936,3.145-6.396c1.061-0.801,2.338-1.311,3.645-1.535
							c0.555-0.094,1.121-0.171,1.68-0.195v-1.12h-10.436v15.693h3.246C277.432,272.401,277.146,269.986,277.443,267.796z"/>
					</g>
				</g>
			</g>
			<g>
				<g>
					<rect x="122.092" y="236.742" style="fill:#F7CF9E;" width="83.943" height="56.031"/>
				</g>
				<g>
					<g>
						<rect x="143.941" y="256.478" style="fill:#FFFFFF;" width="18.207" height="33.699"/>
						<path style="fill:#DADADA;" d="M147.369,276.327c0.547-4.987,2.109-10.598,5.486-13.736c1.85-1.723,4.076-2.813,6.359-3.293
							c0.967-0.201,1.953-0.37,2.934-0.419v-2.401h-18.207v33.699h5.666C147.348,286.215,146.848,281.03,147.369,276.327z"/>
						<path style="fill:#F9B233;" d="M160.873,273.407c0,0.915-0.744,1.655-1.658,1.655c-0.914,0-1.654-0.74-1.654-1.655
							c0-0.915,0.74-1.658,1.654-1.658C160.129,271.749,160.873,272.492,160.873,273.407z"/>
						<path style="fill:#CECECE;" d="M164.01,253.879h-21.928v38.894h21.928V253.879z M143.941,290.177v-33.699h18.207v33.699
							H143.941z"/>
						<g>
							<path style="fill:#DEDEDE;" d="M164.01,253.879h-21.928v38.894h21.928V253.879z M142.816,291.144v-35.632h20.094v35.632
								H142.816z"/>
						</g>
					</g>
					<g>
						<rect x="165.98" y="256.478" style="fill:#FFFFFF;" width="18.205" height="33.699"/>
						<path style="fill:#DADADA;" d="M180.764,276.327c-0.553-4.987-2.113-10.598-5.49-13.736c-1.852-1.723-4.08-2.813-6.361-3.293
							c-0.965-0.201-1.953-0.37-2.932-0.419v-2.401h18.205v33.699h-5.662C180.779,286.215,181.279,281.03,180.764,276.327z"/>
						<path style="fill:#F9B233;" d="M167.256,273.407c0,0.915,0.742,1.655,1.66,1.655c0.914,0,1.654-0.74,1.654-1.655
							c0-0.915-0.74-1.658-1.654-1.658C167.998,271.749,167.256,272.492,167.256,273.407z"/>
						<path style="fill:#CECECE;" d="M164.119,292.773h21.932v-38.894h-21.932V292.773z M165.98,290.177v-33.699h18.205v33.699
							H165.98z"/>
						<g>
							<path style="fill:#DEDEDE;" d="M164.119,292.773h21.932v-38.894h-21.932V292.773z M165.217,291.144v-35.632h20.094v35.632
								H165.217z"/>
						</g>
					</g>
				</g>
				<rect x="115.768" y="236.742" style="fill:#C5B898;" width="96.594" height="9.518"/>
			</g>
			<g>
				<rect x="94.471" y="175.283" style="fill:#C5B898;" width="139.188" height="9.516"/>
				<rect x="94.471" y="180.04" style="fill:#C6C6C6;" width="139.188" height="4.759"/>
			</g>
			<g>
				<g>
					<path style="fill:#FFFFFF;" d="M131.482,145.419h-12.574v18.114h12.574V145.419z M119.979,162.321v-15.693h10.439v15.693
						H119.979z"/>
					<g>
						<path style="fill:#C6C6C6;" d="M131.482,145.419h-12.574v18.114h12.574V145.419z M119.334,162.772v-16.594h11.52v16.594
							H119.334z"/>
						<rect x="119.979" y="146.628" style="fill:#06B3BF;" width="10.439" height="15.693"/>
					</g>
					<path style="fill:#FFFFFF;" d="M128.996,152.283c-0.775,0.102-1.568,0.328-2.223,0.766c-1.238,0.826-1.834,2.349-2.049,3.778
						c-0.213,1.387-0.076,3.021,0.861,4.142c0.029,0.036,0.059,0.07,0.088,0.106h3.957v-8.834
						C129.416,152.246,129.205,152.253,128.996,152.283z"/>
					<path style="fill:#DADADA;" d="M121.939,155.872c0.316-2.322,1.213-4.932,3.146-6.396c1.063-0.803,2.338-1.311,3.647-1.533
						c0.555-0.094,1.119-0.171,1.685-0.196v-1.118h-10.439v15.693h3.246C121.932,160.48,121.646,158.064,121.939,155.872z"/>
				</g>
				<g>
					<path style="fill:#FFFFFF;" d="M150.889,145.419h-12.572v18.114h12.572V145.419z M139.381,162.321v-15.693h10.438v15.693
						H139.381z"/>
					<g>
						<path style="fill:#C6C6C6;" d="M150.889,145.419h-12.572v18.114h12.572V145.419z M138.742,162.772v-16.594h11.516v16.594
							H138.742z"/>
						<rect x="139.381" y="146.628" style="fill:#06B3BF;" width="10.438" height="15.693"/>
					</g>
					<path style="fill:#FFFFFF;" d="M148.404,152.283c-0.779,0.102-1.57,0.328-2.229,0.766c-1.236,0.826-1.828,2.349-2.045,3.778
						c-0.211,1.387-0.076,3.021,0.863,4.142c0.029,0.036,0.057,0.07,0.088,0.106h3.955v-8.834
						C148.822,152.246,148.611,152.253,148.404,152.283z"/>
					<path style="fill:#DADADA;" d="M141.348,155.872c0.316-2.322,1.211-4.932,3.146-6.396c1.061-0.803,2.338-1.311,3.646-1.533
						c0.555-0.094,1.119-0.171,1.678-0.196v-1.118h-10.438v15.693h3.252C141.336,160.48,141.051,158.064,141.348,155.872z"/>
				</g>
				<g>
					<path style="fill:#FFFFFF;" d="M170.297,145.419h-12.572v18.114h12.572V145.419z M158.791,162.321v-15.693h10.438v15.693
						H158.791z"/>
					<g>
						<path style="fill:#C6C6C6;" d="M170.297,145.419h-12.572v18.114h12.572V145.419z M158.148,162.772v-16.594h11.516v16.594
							H158.148z"/>
						<rect x="158.791" y="146.628" style="fill:#06B3BF;" width="10.438" height="15.693"/>
					</g>
					<path style="fill:#FFFFFF;" d="M167.811,152.283c-0.775,0.102-1.568,0.328-2.227,0.766c-1.236,0.826-1.83,2.349-2.043,3.778
						c-0.213,1.387-0.078,3.021,0.857,4.142c0.027,0.036,0.063,0.07,0.092,0.106h3.953v-8.834
						C168.229,152.246,168.016,152.253,167.811,152.283z"/>
					<path style="fill:#DADADA;" d="M160.754,155.872c0.316-2.322,1.211-4.932,3.146-6.396c1.063-0.803,2.34-1.311,3.648-1.533
						c0.555-0.094,1.119-0.171,1.68-0.196v-1.118h-10.438v15.693h3.246C160.744,160.48,160.455,158.064,160.754,155.872z"/>
				</g>
				<g>
					<path style="fill:#FFFFFF;" d="M189.703,145.419h-12.574v18.114h12.574V145.419z M178.193,162.321v-15.693h10.441v15.693
						H178.193z"/>
					<g>
						<path style="fill:#C6C6C6;" d="M189.703,145.419h-12.574v18.114h12.574V145.419z M177.553,162.772v-16.594h11.52v16.594
							H177.553z"/>
						<rect x="178.193" y="146.628" style="fill:#06B3BF;" width="10.441" height="15.693"/>
					</g>
					<path style="fill:#FFFFFF;" d="M187.219,152.283c-0.777,0.102-1.572,0.328-2.227,0.766c-1.238,0.826-1.832,2.349-2.049,3.778
						c-0.207,1.387-0.074,3.021,0.861,4.142c0.029,0.036,0.063,0.07,0.092,0.106h3.955v-8.834
						C187.637,152.246,187.424,152.253,187.219,152.283z"/>
					<path style="fill:#DADADA;" d="M180.162,155.872c0.313-2.322,1.209-4.932,3.146-6.396c1.061-0.803,2.336-1.311,3.645-1.533
						c0.553-0.094,1.119-0.171,1.682-0.196v-1.118h-10.441v15.693h3.252C180.15,160.48,179.863,158.064,180.162,155.872z"/>
				</g>
				<g>
					<path style="fill:#FFFFFF;" d="M209.109,145.419h-12.574v18.114h12.574V145.419z M197.604,162.321v-15.693h10.439v15.693
						H197.604z"/>
					<g>
						<path style="fill:#C6C6C6;" d="M209.109,145.419h-12.574v18.114h12.574V145.419z M196.961,162.772v-16.594h11.519v16.594
							H196.961z"/>
						<rect x="197.604" y="146.628" style="fill:#06B3BF;" width="10.439" height="15.693"/>
					</g>
					<path style="fill:#FFFFFF;" d="M206.623,152.283c-0.773,0.102-1.568,0.328-2.223,0.766c-1.242,0.826-1.832,2.349-2.049,3.778
						c-0.213,1.387-0.076,3.021,0.861,4.142c0.027,0.036,0.061,0.07,0.088,0.106h3.957v-8.834
						C207.045,152.246,206.832,152.253,206.623,152.283z"/>
					<path style="fill:#DADADA;" d="M199.57,155.872c0.313-2.322,1.207-4.932,3.143-6.396c1.063-0.803,2.34-1.311,3.648-1.533
						c0.551-0.094,1.119-0.171,1.682-0.196v-1.118h-10.439v15.693h3.25C199.559,160.48,199.27,158.064,199.57,155.872z"/>
				</g>
			</g>
			<g>
				<rect x="102.268" y="124.152" style="fill:#C5B898;" width="123.488" height="9.516"/>
				<rect x="102.268" y="128.911" style="fill:#C6C6C6;" width="123.488" height="4.757"/>
			</g>
			<g>
				<rect x="227.973" y="194.393" style="fill:#A69C81;" width="74.855" height="9.514"/>
				<rect x="227.973" y="199.149" style="fill:#C6C6C6;" width="74.855" height="4.757"/>
			</g>
			<rect x="32.744" y="203.903" style="fill:#C5B898;" width="67.41" height="78.878"/>
			<g>
				<g>
					<g>
						<path style="fill:#FFFFFF;" d="M79.182,229.006H91.75v-18.113H79.182V229.006z M80.246,227.796v-15.694h10.439v15.694H80.246z
							"/>
						<g>
							<path style="fill:#C6C6C6;" d="M79.182,229.006H91.75v-18.113H79.182V229.006z M79.811,228.247v-16.595h11.518v16.595H79.811
								z"/>
							<rect x="80.246" y="212.102" style="fill:#06B3BF;" width="10.439" height="15.694"/>
						</g>
						<path style="fill:#FFFFFF;" d="M81.666,217.756c0.775,0.102,1.568,0.329,2.223,0.767c1.24,0.827,1.834,2.35,2.051,3.777
							c0.209,1.389,0.074,3.024-0.863,4.144c-0.027,0.038-0.061,0.072-0.092,0.105h-3.953v-8.834
							C81.244,217.719,81.455,217.727,81.666,217.756z"/>
						<path style="fill:#DADADA;" d="M88.721,221.345c-0.318-2.32-1.211-4.933-3.146-6.396c-1.061-0.802-2.338-1.31-3.649-1.533
							c-0.555-0.094-1.119-0.172-1.68-0.195v-1.12h10.439v15.694h-3.25C88.732,225.953,89.016,223.537,88.721,221.345z"/>
					</g>
					<g>
						<path style="fill:#FFFFFF;" d="M59.773,229.006h12.57v-18.113h-12.57V229.006z M60.842,227.796v-15.694h10.437v15.694H60.842z
							"/>
						<g>
							<path style="fill:#C6C6C6;" d="M59.773,229.006h12.57v-18.113h-12.57V229.006z M60.402,228.247v-16.595h11.519v16.595H60.402
								z"/>
							<rect x="60.842" y="212.102" style="fill:#06B3BF;" width="10.438" height="15.694"/>
						</g>
						<path style="fill:#FFFFFF;" d="M62.262,217.756c0.771,0.102,1.564,0.329,2.219,0.767c1.242,0.827,1.834,2.35,2.051,3.777
							c0.211,1.389,0.074,3.024-0.861,4.144c-0.029,0.038-0.063,0.072-0.09,0.105h-3.953v-8.834
							C61.836,217.719,62.053,217.727,62.262,217.756z"/>
						<path style="fill:#DADADA;" d="M69.313,221.345c-0.313-2.32-1.207-4.933-3.146-6.396c-1.059-0.802-2.336-1.31-3.643-1.533
							c-0.557-0.094-1.123-0.172-1.682-0.195v-1.12h10.437v15.694h-3.252C69.326,225.953,69.609,223.537,69.313,221.345z"/>
					</g>
					<g>
						<path style="fill:#FFFFFF;" d="M40.363,229.006h12.576v-18.113H40.363V229.006z M41.434,227.796v-15.694h10.438v15.694H41.434
							z"/>
						<g>
							<path style="fill:#C6C6C6;" d="M40.363,229.006h12.576v-18.113H40.363V229.006z M40.992,228.247v-16.595h11.521v16.595
								H40.992z"/>
							<rect x="41.434" y="212.102" style="fill:#06B3BF;" width="10.438" height="15.694"/>
						</g>
						<path style="fill:#FFFFFF;" d="M42.852,217.756c0.777,0.102,1.57,0.329,2.227,0.767c1.238,0.827,1.834,2.35,2.049,3.777
							c0.209,1.389,0.07,3.024-0.861,4.144c-0.035,0.038-0.061,0.072-0.096,0.105h-3.951v-8.834
							C42.434,217.719,42.645,217.727,42.852,217.756z"/>
						<path style="fill:#DADADA;" d="M49.904,221.345c-0.311-2.32-1.207-4.933-3.145-6.396c-1.061-0.802-2.338-1.31-3.645-1.533
							c-0.557-0.094-1.117-0.172-1.682-0.195v-1.12h10.438v15.694h-3.246C49.918,225.953,50.205,223.537,49.904,221.345z"/>
					</g>
				</g>
				<g>
					<g>
						<path style="fill:#FFFFFF;" d="M79.957,251.264h12.572V233.15H79.957V251.264z M81.025,250.053V234.36h10.441v15.693H81.025z"
							/>
						<g>
							<path style="fill:#C6C6C6;" d="M79.957,251.264h12.572V233.15H79.957V251.264z M80.588,250.504v-16.595h11.52v16.595H80.588z
								"/>
							<rect x="81.025" y="234.36" style="fill:#06B3BF;" width="10.441" height="15.693"/>
						</g>
						<path style="fill:#FFFFFF;" d="M82.443,240.014c0.775,0.104,1.57,0.327,2.225,0.765c1.24,0.828,1.834,2.353,2.047,3.78
							c0.213,1.386,0.078,3.021-0.859,4.141c-0.029,0.035-0.059,0.071-0.09,0.106h-3.957v-8.836
							C82.023,239.977,82.238,239.984,82.443,240.014z"/>
						<path style="fill:#DADADA;" d="M89.498,243.602c-0.314-2.32-1.207-4.932-3.143-6.396c-1.064-0.802-2.342-1.308-3.646-1.532
							c-0.555-0.098-1.121-0.175-1.684-0.195v-1.12h10.441v15.693h-3.25C89.514,248.21,89.797,245.792,89.498,243.602z"/>
					</g>
					<g>
						<path style="fill:#FFFFFF;" d="M60.551,251.264h12.57V233.15h-12.57V251.264z M61.619,250.053V234.36h10.44v15.693H61.619z"/>
						<g>
							<path style="fill:#C6C6C6;" d="M60.551,251.264h12.57V233.15h-12.57V251.264z M61.184,250.504v-16.595h11.518v16.595H61.184z
								"/>
							<rect x="61.619" y="234.36" style="fill:#06B3BF;" width="10.439" height="15.693"/>
						</g>
						<path style="fill:#FFFFFF;" d="M63.039,240.014c0.773,0.104,1.566,0.327,2.225,0.765c1.238,0.828,1.832,2.353,2.043,3.78
							c0.215,1.386,0.082,3.021-0.859,4.141c-0.029,0.035-0.057,0.071-0.09,0.106h-3.955v-8.836
							C62.617,239.977,62.83,239.984,63.039,240.014z"/>
						<path style="fill:#DADADA;" d="M70.092,243.602c-0.313-2.32-1.209-4.932-3.145-6.396c-1.063-0.802-2.338-1.308-3.644-1.532
							c-0.555-0.098-1.123-0.175-1.684-0.195v-1.12h10.44v15.693h-3.246C70.105,248.21,70.389,245.792,70.092,243.602z"/>
					</g>
					<g>
						<path style="fill:#FFFFFF;" d="M41.145,251.264h12.574V233.15H41.145V251.264z M42.213,250.053V234.36H52.65v15.693H42.213z"
							/>
						<g>
							<path style="fill:#C6C6C6;" d="M41.145,251.264h12.574V233.15H41.145V251.264z M41.775,250.504v-16.595h11.52v16.595H41.775z
								"/>
							<rect x="42.213" y="234.36" style="fill:#06B3BF;" width="10.438" height="15.693"/>
						</g>
						<path style="fill:#FFFFFF;" d="M43.631,240.014c0.774,0.104,1.568,0.327,2.229,0.765c1.236,0.828,1.828,2.353,2.045,3.78
							c0.211,1.386,0.076,3.021-0.863,4.141c-0.027,0.035-0.061,0.071-0.09,0.106h-3.953v-8.836
							C43.213,239.977,43.424,239.984,43.631,240.014z"/>
						<path style="fill:#DADADA;" d="M50.686,243.602c-0.314-2.32-1.207-4.932-3.145-6.396c-1.059-0.802-2.34-1.308-3.646-1.532
							c-0.555-0.098-1.123-0.175-1.682-0.195v-1.12H52.65v15.693h-3.246C50.697,248.21,50.982,245.792,50.686,243.602z"/>
					</g>
				</g>
				<g>
					<g>
						<path style="fill:#FFFFFF;" d="M79.957,275.792h12.572v-18.11H79.957V275.792z M81.025,274.582v-15.693h10.441v15.693H81.025z
							"/>
						<g>
							<path style="fill:#C6C6C6;" d="M79.957,275.792h12.572v-18.11H79.957V275.792z M80.588,275.033v-16.591h11.52v16.591H80.588z
								"/>
							<rect x="81.025" y="258.889" style="fill:#06B3BF;" width="10.441" height="15.693"/>
						</g>
						<path style="fill:#FFFFFF;" d="M82.443,264.542c0.775,0.104,1.57,0.331,2.225,0.769c1.24,0.824,1.834,2.349,2.047,3.777
							c0.213,1.389,0.078,3.021-0.859,4.144c-0.029,0.036-0.059,0.072-0.09,0.104h-3.957v-8.832
							C82.023,264.506,82.238,264.516,82.443,264.542z"/>
						<path style="fill:#DADADA;" d="M89.498,268.134c-0.314-2.323-1.207-4.932-3.143-6.395c-1.064-0.802-2.342-1.311-3.646-1.535
							c-0.555-0.094-1.121-0.172-1.684-0.195v-1.12h10.441v15.693h-3.25C89.514,272.738,89.797,270.324,89.498,268.134z"/>
					</g>
					<g>
						<path style="fill:#FFFFFF;" d="M60.551,275.792h12.57v-18.11h-12.57V275.792z M61.619,274.582v-15.693h10.44v15.693H61.619z"
							/>
						<g>
							<path style="fill:#C6C6C6;" d="M60.551,275.792h12.57v-18.11h-12.57V275.792z M61.184,275.033v-16.591h11.518v16.591H61.184z
								"/>
							<rect x="61.619" y="258.889" style="fill:#06B3BF;" width="10.439" height="15.693"/>
						</g>
						<path style="fill:#FFFFFF;" d="M63.039,264.542c0.773,0.104,1.566,0.331,2.225,0.769c1.238,0.824,1.832,2.349,2.043,3.777
							c0.215,1.389,0.082,3.021-0.859,4.144c-0.029,0.036-0.057,0.072-0.09,0.104h-3.955v-8.832
							C62.617,264.506,62.83,264.516,63.039,264.542z"/>
						<path style="fill:#DADADA;" d="M70.092,268.134c-0.313-2.323-1.209-4.932-3.145-6.395c-1.063-0.802-2.338-1.311-3.644-1.535
							c-0.555-0.094-1.123-0.172-1.684-0.195v-1.12h10.44v15.693h-3.246C70.105,272.738,70.389,270.324,70.092,268.134z"/>
					</g>
					<g>
						<path style="fill:#FFFFFF;" d="M41.145,275.792h12.574v-18.11H41.145V275.792z M42.213,274.582v-15.693H52.65v15.693H42.213z"
							/>
						<g>
							<path style="fill:#C6C6C6;" d="M41.145,275.792h12.574v-18.11H41.145V275.792z M41.775,275.033v-16.591h11.52v16.591H41.775z
								"/>
							<rect x="42.213" y="258.889" style="fill:#06B3BF;" width="10.438" height="15.693"/>
						</g>
						<path style="fill:#FFFFFF;" d="M43.631,264.542c0.774,0.104,1.568,0.331,2.229,0.769c1.236,0.824,1.828,2.349,2.045,3.777
							c0.211,1.389,0.076,3.021-0.863,4.144c-0.027,0.036-0.061,0.072-0.09,0.104h-3.953v-8.832
							C43.213,264.506,43.424,264.516,43.631,264.542z"/>
						<path style="fill:#DADADA;" d="M50.686,268.134c-0.314-2.323-1.207-4.932-3.145-6.395c-1.059-0.802-2.34-1.311-3.646-1.535
							c-0.555-0.094-1.123-0.172-1.682-0.195v-1.12H52.65v15.693h-3.246C50.697,272.738,50.982,270.324,50.686,268.134z"/>
					</g>
				</g>
			</g>
			<g>
				<rect x="25.301" y="194.729" style="fill:#A69C81;" width="74.854" height="9.516"/>
				<rect x="25.301" y="199.487" style="fill:#C6C6C6;" width="74.854" height="4.757"/>
			</g>
			<rect x="121.838" y="104.254" style="fill:#FFFFFF;" width="84.346" height="19.898"/>
			<g>
				<path d="M139.039,111.262v7.317c0,0.305-0.23,0.546-0.535,0.546c-0.305,0-0.537-0.242-0.537-0.546v-3.196h-5.119v3.196
					c0,0.305-0.254,0.546-0.547,0.546c-0.305,0-0.537-0.242-0.537-0.546v-7.317c0-0.305,0.232-0.547,0.537-0.547
					c0.293,0,0.547,0.242,0.547,0.547v3.039h5.119v-3.039c0-0.305,0.232-0.547,0.537-0.547
					C138.809,110.715,139.039,110.957,139.039,111.262z"/>
				<path d="M147.033,110.726c1,0,1.809,0.81,1.809,1.808v4.794c0,0.999-0.809,1.808-1.809,1.808h-4.73
					c-0.998,0-1.809-0.81-1.809-1.808v-4.794c0-0.999,0.811-1.808,1.809-1.808H147.033z M141.588,117.329
					c0,0.389,0.326,0.725,0.715,0.725h4.73c0.4,0,0.727-0.336,0.727-0.725v-4.794c0-0.389-0.326-0.715-0.727-0.715h-4.73
					c-0.389,0-0.715,0.326-0.715,0.715V117.329z"/>
				<path d="M156.992,110.726c0.305,0,0.547,0.242,0.547,0.547c0,0.284-0.242,0.546-0.547,0.546h-5.014
					c-0.41,0-0.736,0.316-0.736,0.715v1.136c0,0.389,0.326,0.715,0.736,0.715h3.764c0.988,0,1.797,0.809,1.797,1.819v1.125
					c0,0.999-0.809,1.808-1.797,1.808h-5.037c-0.305,0-0.535-0.242-0.535-0.547c0-0.294,0.23-0.536,0.535-0.536h5.037
					c0.389,0,0.715-0.326,0.715-0.725v-1.125c0-0.399-0.326-0.726-0.715-0.726h-3.764c-1,0-1.809-0.809-1.809-1.808v-1.136
					c0-0.999,0.809-1.808,1.809-1.808H156.992z"/>
				<path d="M164.967,110.726c0.998,0,1.809,0.81,1.809,1.808v2.702c0,0.999-0.811,1.808-1.809,1.808h-4.879v1.545
					c0,0.305-0.264,0.547-0.547,0.547c-0.305,0-0.547-0.242-0.547-0.547v-6.056c0-0.999,0.811-1.808,1.818-1.808H164.967z
					 M160.088,115.962h4.879c0.398,0,0.734-0.326,0.734-0.726v-2.702c0-0.389-0.336-0.715-0.734-0.715h-4.154
					c-0.398,0-0.725,0.326-0.725,0.715V115.962z"/>
				<path d="M167.861,111.273c0-0.305,0.242-0.547,0.547-0.547c0.283,0,0.547,0.242,0.547,0.547v7.317
					c0,0.305-0.264,0.547-0.547,0.547c-0.305,0-0.547-0.242-0.547-0.547V111.273z"/>
				<path d="M177.553,110.715c0.316,0,0.547,0.242,0.547,0.547c0,0.284-0.23,0.547-0.547,0.547h-2.891v6.771
					c0,0.305-0.242,0.546-0.537,0.546c-0.305,0-0.547-0.242-0.547-0.546v-6.771h-2.9c-0.305,0-0.537-0.263-0.537-0.547
					c0-0.305,0.232-0.547,0.537-0.547H177.553z"/>
				<path d="M184.938,110.715c0.998,0,1.809,0.81,1.809,1.809v6.056c0,0.305-0.264,0.546-0.547,0.546
					c-0.285,0-0.547-0.242-0.547-0.546v-3.196h-5.361v3.196c0,0.305-0.254,0.546-0.547,0.546c-0.285,0-0.537-0.242-0.537-0.546
					v-6.056c0-0.999,0.811-1.809,1.809-1.809H184.938z M180.291,114.311h5.361v-1.787c0-0.399-0.326-0.715-0.715-0.715h-3.922
					c-0.398,0-0.725,0.315-0.725,0.715V114.311z"/>
				<path d="M188.158,111.273c0-0.305,0.23-0.547,0.535-0.547c0.295,0,0.547,0.242,0.547,0.547v6.056
					c0,0.389,0.326,0.725,0.727,0.725h4.93c0.295,0,0.547,0.252,0.547,0.536c0,0.305-0.252,0.547-0.547,0.547h-4.93
					c-1,0-1.809-0.81-1.809-1.808V111.273z"/>
			</g>
		</g>
	</g>
	<g>
		<g>
			<g>
				<path style="fill:#122E39;" d="M399.896,313.864c0,3.691-2.992,6.685-6.684,6.685H282.521c-3.688,0-6.682-2.994-6.682-6.685
					V114.491c0-3.691,2.994-6.684,6.682-6.684h110.691c3.691,0,6.684,2.993,6.684,6.684V313.864z"/>
				<rect x="284.195" y="123.814" style="fill:#00B1C3;" width="107.35" height="173.625"/>
				<rect x="284.195" y="123.814" style="opacity:0.3;fill:#FFFFFF;" width="107.35" height="17.332"/>
				<polygon style="fill:#C6C6C6;" points="284.195,123.814 284.195,297.44 391.545,297.44 				"/>
				<path style="fill:#FFFFFF;" d="M353.531,114.835c0,1.268-1.027,2.297-2.295,2.297h-26.734c-1.271,0-2.295-1.03-2.295-2.297l0,0
					c0-1.269,1.023-2.298,2.295-2.298h26.734C352.504,112.537,353.531,113.566,353.531,114.835L353.531,114.835z"/>
				<path style="fill:#FFFFFF;" d="M354.789,308.436c0,2.075-1.686,3.758-3.76,3.758h-26.318c-2.074,0-3.758-1.684-3.758-3.758l0,0
					c0-2.078,1.684-3.761,3.758-3.761h26.318C353.103,304.675,354.789,306.358,354.789,308.436L354.789,308.436z"/>
				<g>
					<path style="fill:#FFFFFF;" d="M308.631,308.436c0,2.882-2.338,5.219-5.221,5.219c-2.881,0-5.223-2.337-5.223-5.219
						c0-2.884,2.342-5.222,5.223-5.222C306.293,303.214,308.631,305.552,308.631,308.436z"/>
					<path style="fill:#FFFFFF;" d="M377.549,308.436c0,2.882-2.338,5.219-5.221,5.219c-2.883,0-5.221-2.337-5.221-5.219
						c0-2.884,2.338-5.222,5.221-5.222C375.211,303.214,377.549,305.552,377.549,308.436z"/>
				</g>
				<g>
					<path style="fill:#FFFFFF;" d="M352.313,133.672c0,2.188-0.811,3.396-2.238,3.396c-1.258,0-2.109-1.178-2.129-3.308
						c0-2.159,0.932-3.347,2.238-3.347C351.541,130.414,352.313,131.622,352.313,133.672z M348.816,133.771
						c0,1.674,0.516,2.624,1.309,2.624c0.891,0,1.316-1.04,1.316-2.684c0-1.585-0.406-2.624-1.307-2.624
						C349.371,131.087,348.816,132.019,348.816,133.771z"/>
					<path style="fill:#FFFFFF;" d="M353.035,135.326c0-0.812,0.484-1.387,1.277-1.723l-0.01-0.03
						c-0.713-0.337-1.02-0.892-1.02-1.446c0-1.02,0.861-1.713,1.99-1.713c1.248,0,1.871,0.782,1.871,1.584
						c0,0.545-0.268,1.129-1.059,1.505v0.03c0.801,0.317,1.297,0.881,1.297,1.664c0,1.119-0.961,1.872-2.19,1.872
						C353.848,137.069,353.035,136.267,353.035,135.326z M356.5,135.286c0-0.782-0.543-1.158-1.416-1.406
						c-0.752,0.218-1.158,0.713-1.158,1.327c-0.029,0.654,0.465,1.228,1.287,1.228C355.996,136.435,356.5,135.95,356.5,135.286z
						 M354.103,132.068c0,0.643,0.486,0.99,1.229,1.188c0.555-0.188,0.98-0.584,0.98-1.168c0-0.515-0.307-1.05-1.09-1.05
						C354.5,131.038,354.103,131.513,354.103,132.068z"/>
					<path style="fill:#FFFFFF;" d="M358.262,132.959c0-0.366,0.248-0.624,0.594-0.624c0.348,0,0.574,0.257,0.584,0.624
						c0,0.347-0.227,0.614-0.594,0.614C358.5,133.573,358.262,133.306,358.262,132.959z M358.262,136.455
						c0-0.367,0.248-0.624,0.594-0.624c0.348,0,0.574,0.257,0.584,0.624c0,0.347-0.227,0.614-0.594,0.614
						C358.5,137.069,358.262,136.802,358.262,136.455z"/>
					<path style="fill:#FFFFFF;" d="M364.52,133.672c0,2.188-0.811,3.396-2.238,3.396c-1.258,0-2.109-1.178-2.129-3.308
						c0-2.159,0.932-3.347,2.238-3.347C363.748,130.414,364.52,131.622,364.52,133.672z M361.023,133.771
						c0,1.674,0.516,2.624,1.309,2.624c0.891,0,1.316-1.04,1.316-2.684c0-1.585-0.406-2.624-1.307-2.624
						C361.578,131.087,361.023,132.019,361.023,133.771z"/>
					<path style="fill:#FFFFFF;" d="M369.598,133.672c0,2.188-0.81,3.396-2.238,3.396c-1.258,0-2.109-1.178-2.129-3.308
						c0-2.159,0.932-3.347,2.238-3.347C368.826,130.414,369.598,131.622,369.598,133.672z M366.102,133.771
						c0,1.674,0.516,2.624,1.309,2.624c0.891,0,1.316-1.04,1.316-2.684c0-1.585-0.406-2.624-1.307-2.624
						C366.656,131.087,366.102,132.019,366.102,133.771z"/>
					<path style="fill:#FFFFFF;" d="M370.707,130.365c0.416-0.069,0.959-0.129,1.652-0.129c0.852,0,1.477,0.198,1.873,0.555
						c0.365,0.317,0.584,0.802,0.584,1.396c0,0.605-0.178,1.08-0.516,1.426c-0.455,0.485-1.197,0.733-2.039,0.733
						c-0.258,0-0.496-0.01-0.693-0.06v2.674h-0.861V130.365z M371.568,133.583c0.188,0.05,0.426,0.069,0.713,0.069
						c1.039,0,1.674-0.505,1.674-1.426c0-0.881-0.625-1.308-1.576-1.308c-0.375,0-0.662,0.03-0.811,0.069V133.583z"/>
					<path style="fill:#FFFFFF;" d="M375.785,133.464c0-0.495-0.01-0.901-0.039-1.297h0.762l0.039,0.772h0.031
						c0.266-0.456,0.713-0.881,1.504-0.881c0.654,0,1.148,0.396,1.357,0.96h0.02c0.148-0.268,0.336-0.475,0.535-0.624
						c0.287-0.218,0.603-0.336,1.059-0.336c0.635,0,1.574,0.416,1.574,2.08v2.822h-0.852v-2.713c0-0.921-0.336-1.476-1.039-1.476
						c-0.494,0-0.881,0.366-1.029,0.793c-0.041,0.119-0.07,0.277-0.07,0.435v2.961h-0.852v-2.872c0-0.762-0.336-1.317-1-1.317
						c-0.545,0-0.941,0.436-1.08,0.872c-0.049,0.128-0.068,0.277-0.068,0.426v2.892h-0.852V133.464z"/>
				</g>
				<g>
					<path style="fill:#FFFFFF;" d="M310.18,131.335h-0.02l-1.119,0.604l-0.168-0.663l1.406-0.753h0.742v6.437h-0.842V131.335z"/>
					<path style="fill:#FFFFFF;" d="M317.211,131.256h-2.457l-0.246,1.654c0.148-0.02,0.287-0.04,0.523-0.04
						c0.496,0,0.99,0.109,1.387,0.347c0.506,0.287,0.922,0.842,0.922,1.654c0,1.257-1,2.198-2.397,2.198
						c-0.703,0-1.299-0.198-1.605-0.396l0.219-0.664c0.268,0.159,0.791,0.356,1.377,0.356c0.82,0,1.523-0.535,1.523-1.397
						c-0.01-0.831-0.565-1.426-1.852-1.426c-0.365,0-0.652,0.039-0.891,0.069l0.416-3.09h3.08V131.256z"/>
					<path style="fill:#FFFFFF;" d="M322.725,133.672c0,2.188-0.813,3.396-2.238,3.396c-1.258,0-2.109-1.178-2.129-3.308
						c0-2.159,0.93-3.347,2.238-3.347C321.951,130.414,322.725,131.622,322.725,133.672z M319.228,133.771
						c0,1.674,0.516,2.624,1.307,2.624c0.893,0,1.318-1.04,1.318-2.684c0-1.585-0.406-2.624-1.309-2.624
						C319.783,131.087,319.228,132.019,319.228,133.771z"/>
				</g>
				<g>
					<g>
						<path style="fill:#D42A26;" d="M302.217,126.593c-2.811-0.562-3.861,1.911-4.041,2.41c-0.182-0.499-1.236-2.972-4.045-2.41
							c-1.928,0.385-2.625,2.463-2.215,4.201c0.143,0.599,0.354,1.259,0.641,1.804c0,0,2.162,4.09,5.619,5.856
							c3.455-1.766,5.615-5.856,5.615-5.856c0.287-0.545,0.5-1.205,0.643-1.804C304.844,129.056,304.146,126.978,302.217,126.593z"
							/>
						<path style="fill:#C6C6C6;" d="M302.961,126.853c0.355,0.607,0.56,1.268,0.603,1.973c0.113,2.007-0.58,4.421-2.353,5.563
							c-1.256,0.81-2.832,0.855-4.113,0.072c-0.664-0.408-1.541-1.116-1.939-1.797c-0.471-0.812-1.027-2.202-0.967-3.161
							c0.047-0.797,0.506-2.012,1.15-2.532c0.162-0.135,0.34-0.241,0.525-0.328c-0.484-0.146-1.06-0.187-1.736-0.051
							c-1.928,0.385-2.625,2.463-2.215,4.201c0.143,0.599,0.354,1.259,0.641,1.804c0,0,2.162,4.09,5.619,5.856
							c3.455-1.766,5.615-5.856,5.615-5.856c0.287-0.545,0.5-1.205,0.643-1.804C304.783,129.303,304.32,127.562,302.961,126.853z"/>
					</g>
					<polyline style="fill:none;stroke:#FFFFFF;stroke-width:0.6241;stroke-miterlimit:10;" points="290.031,131.281 
						296.517,131.281 297.188,133.955 298.176,129.476 298.99,135.828 300.529,131.146 306.346,131.146 					"/>
				</g>
			</g>
		</g>
		<g>
			<rect x="325.262" y="172.081" style="fill:#FFFFFF;" width="57.363" height="48.518"/>
			<path style="fill:#DADADA;" d="M367.002,210.826c-10.076-0.397-19.785-4.457-26.213-12.412
				c-3.897-4.827-6.574-10.584-7.326-16.773c-0.385-3.163-0.42-6.374-0.307-9.559h-7.895v48.518h57.363V208.9
				C377.508,210.341,372.219,211.03,367.002,210.826z"/>
			<rect x="325.688" y="172.081" style="fill:#DADADA;" width="2.529" height="48.508"/>
			<path style="fill:#00B1C3;" d="M365.185,188.378c0,6.208-5.033,11.241-11.238,11.241c-6.207,0-11.238-5.033-11.238-11.241
				c0-6.208,5.031-11.24,11.238-11.24C360.152,177.139,365.185,182.171,365.185,188.378z"/>
			<g>
				<path style="fill:#FFFFFF;" d="M305.293,176.157c1.938-4.469,5.65-4.076,5.65-4.076h14.744v33.085v15.433H293.1v-13.656
					L305.293,176.157z"/>
			</g>
			<g>
				<path style="fill:#C6C6C6;" d="M321.801,220.589c-0.711-6.219-6-11.067-12.406-11.067c-6.406,0-11.697,4.848-12.406,11.067
					H321.801z"/>
				<path style="fill:#ACACAC;" d="M319.045,220.589c-0.322-5.052-4.52-9.049-9.65-9.049s-9.326,3.997-9.65,9.049H319.045z"/>
				<g>
					<path style="fill:#2D2D2C;" d="M318.332,221.194c0,4.934-4.004,8.935-8.938,8.935s-8.936-4.001-8.936-8.935
						c0-4.935,4.002-8.936,8.936-8.936S318.332,216.26,318.332,221.194z"/>
					<path style="fill:#C6C6C6;" d="M316.42,225.408c-3.012,0.627-6.17-0.035-8.17-2.505c-1.818-2.244-2.445-5.236-1.604-8.018
						c0.299-0.991,0.787-1.83,1.41-2.526c-4.301,0.645-7.598,4.353-7.598,8.835c0,4.934,4.002,8.935,8.936,8.935
						c3.525,0,6.572-2.04,8.027-5.005C317.096,225.241,316.762,225.337,316.42,225.408z"/>
					<path style="fill:#FFFFFF;" d="M309.791,213.571c-0.031,0.035-0.063,0.069-0.096,0.105c-0.633,0.72-0.979,1.639-1.074,2.589
						c-0.221,2.143,0.766,4.445,2.789,5.406c1.375,0.654,3.016,0.628,4.414,0.053c0.311-0.713,0.484-1.499,0.484-2.326
						c0-3.239-2.629-5.864-5.861-5.864C310.223,213.534,310.006,213.549,309.791,213.571z"/>
					<path style="fill:#454444;" d="M314.447,221.091c0.057,2.791-2.16,5.099-4.951,5.155c-2.789,0.057-5.098-2.158-5.154-4.949
						c-0.057-2.789,2.16-5.097,4.949-5.154C312.082,216.086,314.391,218.302,314.447,221.091z"/>
					<path style="fill:#0A0A0A;" d="M313.17,221.194c0,2.086-1.691,3.777-3.775,3.777c-2.086,0-3.775-1.691-3.775-3.777
						c0-2.085,1.689-3.776,3.775-3.776C311.478,217.418,313.17,219.109,313.17,221.194z"/>
					<path style="fill:#FFFFFF;" d="M309.191,218.078c-0.014,0.018-0.033,0.034-0.047,0.054c-0.316,0.359-0.49,0.819-0.537,1.293
						c-0.111,1.072,0.383,2.223,1.393,2.704c0.688,0.326,1.506,0.316,2.209,0.026c0.154-0.355,0.238-0.749,0.238-1.163
						c0-1.62-1.309-2.931-2.93-2.931C309.408,218.061,309.297,218.067,309.191,218.078z"/>
				</g>
			</g>
			<g>
				<path style="fill:#C6C6C6;" d="M380.809,220.589c-0.707-6.219-6-11.067-12.402-11.067c-6.406,0-11.699,4.848-12.406,11.067
					H380.809z"/>
				<path style="fill:#ACACAC;" d="M378.057,220.589c-0.324-5.052-4.52-9.049-9.65-9.049c-5.133,0-9.326,3.997-9.652,9.049H378.057z
					"/>
				<g>
					<path style="fill:#2D2D2C;" d="M377.338,221.194c0,4.934-4,8.935-8.932,8.935c-4.938,0-8.938-4.001-8.938-8.935
						c0-4.935,4-8.936,8.938-8.936C373.338,212.259,377.338,216.26,377.338,221.194z"/>
					<path style="fill:#C6C6C6;" d="M375.434,225.408c-3.014,0.627-6.172-0.035-8.174-2.505c-1.816-2.244-2.443-5.236-1.602-8.018
						c0.299-0.991,0.783-1.83,1.408-2.526c-4.299,0.644-7.598,4.353-7.598,8.835c0,4.934,4,8.935,8.938,8.935
						c3.525,0,6.57-2.04,8.023-5.005C376.107,225.241,375.771,225.337,375.434,225.408z"/>
					<path style="fill:#FFFFFF;" d="M368.803,213.571c-0.033,0.035-0.065,0.069-0.098,0.105c-0.631,0.72-0.977,1.639-1.072,2.589
						c-0.219,2.143,0.766,4.445,2.789,5.406c1.373,0.654,3.012,0.628,4.416,0.053c0.307-0.713,0.48-1.499,0.48-2.326
						c0-3.239-2.625-5.864-5.865-5.864C369.234,213.534,369.017,213.549,368.803,213.571z"/>
					<path style="fill:#454444;" d="M373.455,221.091c0.059,2.791-2.156,5.099-4.949,5.155c-2.789,0.057-5.098-2.158-5.154-4.949
						c-0.057-2.789,2.158-5.097,4.947-5.154C371.092,216.086,373.398,218.302,373.455,221.091z"/>
					<path style="fill:#0A0A0A;" d="M372.18,221.194c0,2.086-1.689,3.777-3.773,3.777c-2.086,0-3.777-1.691-3.777-3.777
						c0-2.085,1.691-3.776,3.777-3.776C370.49,217.418,372.18,219.109,372.18,221.194z"/>
					<path style="fill:#FFFFFF;" d="M368.203,218.078c-0.018,0.018-0.033,0.034-0.049,0.054c-0.318,0.359-0.488,0.818-0.537,1.293
						c-0.109,1.072,0.385,2.223,1.393,2.704c0.686,0.326,1.508,0.316,2.211,0.026c0.152-0.355,0.242-0.749,0.242-1.163
						c0-1.62-1.316-2.932-2.936-2.932C368.418,218.06,368.309,218.067,368.203,218.078z"/>
				</g>
			</g>
			<g>
				<polygon style="fill:#8CD0E5;" points="309.045,175.998 320.996,175.998 320.996,202.493 300.047,202.493 303.932,192.197 				
					"/>
				<path style="fill:#FFFFFF;" d="M311.969,181.145c0.186,2.17,0.357,4.613,1.111,6.678c1.047,2.874,3.713,6.093,6.844,6.796
					v-17.48h-8.076C311.705,178.507,311.869,179.994,311.969,181.145z"/>
				<path style="fill:#EDEDED;" d="M312.891,192.047c-1.744-3.062-2.154-6.782-2.477-10.242c-0.152-1.655-0.428-3.823-0.234-5.808
					h-1.135l-5.113,16.2l-3.885,10.296h20.949v-3.837C317.564,197.819,314.6,195.044,312.891,192.047z"/>
			</g>
			<g>
				<path style="fill:#FFFFFF;" d="M363.682,188.378c0,5.377-4.359,9.737-9.734,9.737c-5.379,0-9.738-4.36-9.738-9.737
					c0-5.377,4.359-9.738,9.738-9.738C359.322,178.641,363.682,183.001,363.682,188.378z"/>
				<path style="fill:#DADADA;" d="M353.957,191.414c-3.684-2.511-5.893-7.575-4.566-11.64c-3.08,1.635-5.182,4.871-5.182,8.604
					c0,5.377,4.359,9.737,9.738,9.737c3.758,0,7.012-2.132,8.633-5.251C359.684,193.436,356.096,192.869,353.957,191.414z"/>
				<polygon style="fill:#00B1C3;" points="359.156,185.586 355.34,185.586 355.34,181.589 352.549,181.589 352.549,185.586 
					348.736,185.586 348.736,188.377 352.549,188.377 352.549,195.167 355.34,195.167 355.34,188.377 359.156,188.377 				"/>
				<path style="fill:#FFFFFF;" d="M353.244,180.489c-2.559,3.043,0.375,8.39,4.16,8.999c1.822,0.293,3.236,0.114,4.379-0.442
					c0.072-0.414,0.117-0.836,0.117-1.269c0-4.087-3.316-7.402-7.402-7.402C354.072,180.374,353.652,180.419,353.244,180.489z"/>
			</g>
			<g>
				<path style="fill:#576170;" d="M340.025,201.419c0.375,0,0.68,0.304,0.68,0.68v2.276c0,0.115-0.1,0.206-0.205,0.206
					c-0.108,0-0.205-0.091-0.205-0.206v-1.201h-2.016v1.201c0,0.115-0.096,0.206-0.207,0.206c-0.105,0-0.201-0.091-0.201-0.206
					v-2.276c0-0.376,0.305-0.68,0.68-0.68H340.025z M338.279,202.771h2.016v-0.672c0-0.15-0.123-0.269-0.27-0.269h-1.475
					c-0.15,0-0.271,0.118-0.271,0.269V202.771z"/>
				<path style="fill:#576170;" d="M345.654,201.423c0.375,0,0.68,0.304,0.68,0.68v2.276c0,0.115-0.088,0.206-0.201,0.206
					c-0.115,0-0.201-0.091-0.201-0.206v-2.276c0-0.15-0.123-0.268-0.277-0.268h-1.391c-0.15,0-0.273,0.119-0.273,0.268v2.276
					c0,0.115-0.086,0.206-0.201,0.206c-0.115,0-0.201-0.091-0.201-0.206v-2.276c0-0.15-0.127-0.268-0.277-0.268h-1.391
					c-0.15,0-0.273,0.119-0.273,0.268v2.276c0,0.115-0.086,0.206-0.201,0.206c-0.111,0-0.205-0.091-0.205-0.206v-2.276
					c0-0.376,0.305-0.68,0.68-0.68h1.391c0.178,0,0.355,0.087,0.475,0.198c0.123-0.126,0.293-0.198,0.479-0.198H345.654z"/>
				<path style="fill:#576170;" d="M348.926,201.419c0.363,0,0.824,0.142,0.824,0.68v0.455c0,0.186-0.074,0.355-0.193,0.478
					c0.111,0.123,0.189,0.3,0.189,0.474v0.395c0,0.376-0.303,0.68-0.68,0.68h-1.92c-0.111,0-0.205-0.099-0.205-0.206v-2.245
					c0-0.4,0.297-0.712,0.68-0.712H348.926z M349.07,202.826c0.15,0,0.277-0.123,0.277-0.273v-0.455
					c0-0.146-0.127-0.272-0.277-0.272h-1.449c-0.154,0-0.273,0.126-0.273,0.304v0.695H349.07z M349.066,204.17
					c0.15,0,0.273-0.123,0.273-0.269v-0.395c0-0.15-0.123-0.273-0.273-0.273h-1.719v0.937H349.066z"/>
				<path style="fill:#576170;" d="M352.853,201.629c0-0.115,0.096-0.206,0.201-0.206c0.115,0,0.207,0.091,0.207,0.206v2.276
					c0,0.376-0.305,0.68-0.68,0.68h-1.648c-0.375,0-0.68-0.304-0.68-0.68v-2.276c0-0.115,0.086-0.206,0.201-0.206
					c0.115,0,0.201,0.091,0.201,0.206v2.276c0,0.15,0.123,0.272,0.277,0.272h1.648c0.145,0,0.271-0.122,0.271-0.272V201.629z"/>
				<path style="fill:#576170;" d="M353.82,201.629c0-0.115,0.086-0.206,0.201-0.206c0.111,0,0.205,0.091,0.205,0.206v2.276
					c0,0.146,0.123,0.272,0.273,0.272h1.853c0.109,0,0.205,0.095,0.205,0.202c0,0.115-0.096,0.206-0.205,0.206H354.5
					c-0.375,0-0.68-0.304-0.68-0.68V201.629z"/>
				<path style="fill:#576170;" d="M359.021,201.419c0.375,0,0.68,0.304,0.68,0.68v2.276c0,0.115-0.1,0.206-0.205,0.206
					c-0.107,0-0.205-0.091-0.205-0.206v-1.201h-2.016v1.201c0,0.115-0.096,0.206-0.207,0.206c-0.105,0-0.201-0.091-0.201-0.206
					v-2.276c0-0.376,0.305-0.68,0.68-0.68H359.021z M357.275,202.771h2.016v-0.672c0-0.15-0.123-0.269-0.27-0.269h-1.475
					c-0.15,0-0.271,0.118-0.271,0.269V202.771z"/>
				<path style="fill:#576170;" d="M362.832,202.103c0-0.15-0.123-0.272-0.272-0.272h-1.645c-0.154,0-0.277,0.122-0.277,0.272v2.276
					c0,0.115-0.086,0.206-0.201,0.206c-0.115,0-0.201-0.091-0.201-0.206v-2.276c0-0.376,0.305-0.68,0.68-0.68h1.645
					c0.375,0,0.68,0.304,0.68,0.68v2.276c0,0.115-0.088,0.206-0.207,0.206c-0.105,0-0.201-0.091-0.201-0.206V202.103z"/>
				<path style="fill:#576170;" d="M366.129,201.419c0.119,0,0.207,0.091,0.207,0.206c0,0.106-0.088,0.206-0.207,0.206h-1.797
					c-0.15,0-0.273,0.122-0.273,0.269v1.802c0,0.146,0.123,0.272,0.273,0.272h1.797c0.119,0,0.207,0.095,0.207,0.202
					c0,0.115-0.088,0.206-0.207,0.206h-1.797c-0.375,0-0.68-0.304-0.68-0.68v-1.802c0-0.376,0.305-0.68,0.68-0.68H366.129z"/>
				<path style="fill:#576170;" d="M369.291,204.178c0.107,0,0.207,0.095,0.207,0.202c0,0.115-0.1,0.206-0.207,0.206h-1.797
					c-0.375,0-0.68-0.304-0.68-0.68v-1.802c0-0.376,0.305-0.68,0.68-0.68h1.797c0.111,0,0.203,0.091,0.203,0.206
					c0,0.106-0.092,0.206-0.203,0.206h-1.797c-0.147,0-0.27,0.122-0.27,0.268v0.668h2.02c0.115,0,0.201,0.095,0.201,0.202
					c0,0.11-0.086,0.206-0.201,0.206h-2.02v0.727c0,0.146,0.123,0.272,0.27,0.272H369.291z"/>
			</g>
			<rect x="293.1" y="206.943" style="fill:#E74645;" width="89.525" height="1.286"/>
			<rect x="293.111" y="205.658" style="fill:#FFFFFF;" width="89.525" height="1.285"/>
			<rect x="293.1" y="208.229" style="fill:#00B1C3;" width="89.525" height="1.284"/>
		</g>
		<g>
			<path style="fill:#E74645;" d="M377.549,261.373c0,6.18-5.01,11.19-11.191,11.19h-49.158c-6.182,0-11.189-5.01-11.189-11.19l0,0
				c0-6.181,5.008-11.189,11.189-11.189h49.158C372.539,250.184,377.549,255.191,377.549,261.373L377.549,261.373z"/>
			<path style="fill:#B2B2B2;" d="M374.797,264.087h-49.158c-6.182,0-11.191-5.009-11.191-11.189c0-0.836,0.1-1.647,0.273-2.432
				c-4.988,1.129-8.711,5.579-8.711,10.906c0,6.18,5.008,11.19,11.189,11.19h49.158c5.344,0,9.807-3.748,10.918-8.761
				C376.478,263.983,375.648,264.087,374.797,264.087z"/>
			<g>
				<path style="fill:#FFFFFF;" d="M335.734,264.724c0,0.078-0.004,0.145-0.008,0.203c-0.006,0.058-0.014,0.109-0.025,0.152
					c-0.012,0.043-0.027,0.083-0.047,0.116c-0.02,0.034-0.055,0.075-0.102,0.124c-0.049,0.048-0.15,0.122-0.305,0.221
					c-0.156,0.099-0.348,0.196-0.578,0.29c-0.228,0.094-0.492,0.174-0.789,0.239c-0.299,0.066-0.623,0.098-0.977,0.098
					c-0.609,0-1.16-0.102-1.65-0.305c-0.49-0.203-0.908-0.503-1.254-0.899c-0.346-0.396-0.613-0.886-0.799-1.469
					c-0.186-0.582-0.279-1.253-0.279-2.013c0-0.779,0.1-1.473,0.301-2.082s0.482-1.125,0.846-1.549
					c0.363-0.423,0.797-0.746,1.303-0.968c0.504-0.223,1.064-0.334,1.678-0.334c0.272,0,0.535,0.025,0.791,0.076
					c0.256,0.051,0.494,0.115,0.711,0.192c0.219,0.077,0.412,0.167,0.58,0.268c0.17,0.102,0.287,0.185,0.352,0.25
					c0.066,0.065,0.107,0.115,0.127,0.149c0.02,0.034,0.035,0.074,0.049,0.12c0.012,0.046,0.021,0.1,0.027,0.163
					c0.008,0.063,0.012,0.138,0.012,0.225c0,0.097-0.006,0.179-0.016,0.247c-0.01,0.068-0.023,0.125-0.043,0.17
					c-0.02,0.046-0.043,0.08-0.068,0.102c-0.027,0.022-0.061,0.033-0.1,0.033c-0.068,0-0.162-0.047-0.283-0.142
					c-0.123-0.094-0.279-0.198-0.471-0.312c-0.193-0.113-0.426-0.218-0.701-0.312c-0.273-0.094-0.603-0.141-0.988-0.141
					c-0.418,0-0.799,0.083-1.141,0.25c-0.344,0.167-0.637,0.413-0.879,0.736c-0.242,0.324-0.432,0.719-0.565,1.186
					c-0.135,0.467-0.201,1-0.201,1.6c0,0.595,0.065,1.121,0.193,1.578c0.129,0.457,0.313,0.839,0.555,1.146
					c0.24,0.308,0.535,0.54,0.885,0.697c0.352,0.157,0.746,0.236,1.189,0.236c0.375,0,0.701-0.046,0.98-0.138
					c0.279-0.092,0.518-0.194,0.715-0.308c0.197-0.114,0.359-0.216,0.484-0.309c0.127-0.092,0.227-0.138,0.299-0.138
					c0.035,0,0.064,0.007,0.088,0.022c0.025,0.014,0.045,0.043,0.059,0.083c0.016,0.041,0.025,0.098,0.033,0.17
					C335.73,264.521,335.734,264.613,335.734,264.724z"/>
				<path style="fill:#FFFFFF;" d="M344.418,265.609c0.037,0.106,0.059,0.192,0.061,0.257c0.002,0.065-0.016,0.115-0.055,0.149
					s-0.102,0.055-0.191,0.065c-0.09,0.01-0.209,0.015-0.359,0.015c-0.15,0-0.27-0.003-0.359-0.011
					c-0.09-0.007-0.156-0.02-0.203-0.036c-0.045-0.017-0.08-0.04-0.102-0.069c-0.021-0.029-0.043-0.065-0.06-0.108l-0.807-2.285
					h-3.902l-0.77,2.256c-0.014,0.043-0.033,0.081-0.057,0.112c-0.025,0.032-0.06,0.058-0.105,0.08
					c-0.047,0.022-0.111,0.037-0.195,0.047c-0.086,0.01-0.195,0.015-0.33,0.015c-0.141,0-0.256-0.006-0.346-0.018
					c-0.09-0.012-0.152-0.035-0.188-0.069c-0.037-0.034-0.055-0.083-0.051-0.149c0.002-0.065,0.021-0.151,0.06-0.257l3.148-8.719
					c0.02-0.053,0.045-0.097,0.076-0.131c0.031-0.034,0.078-0.061,0.139-0.08c0.061-0.02,0.137-0.033,0.23-0.04
					c0.096-0.007,0.215-0.011,0.359-0.011c0.156,0,0.283,0.003,0.385,0.011c0.102,0.007,0.184,0.021,0.246,0.04
					c0.064,0.019,0.111,0.047,0.146,0.083c0.033,0.036,0.061,0.081,0.08,0.134L344.418,265.609z M340.377,257.913h-0.008
					l-1.617,4.679h3.264L340.377,257.913z"/>
				<path style="fill:#FFFFFF;" d="M350.852,265.508c0,0.097-0.006,0.178-0.016,0.243c-0.01,0.065-0.025,0.121-0.047,0.167
					c-0.022,0.046-0.049,0.08-0.08,0.102c-0.031,0.022-0.068,0.033-0.111,0.033h-4.15c-0.111,0-0.217-0.038-0.314-0.112
					c-0.1-0.075-0.148-0.207-0.148-0.396v-8.69c0-0.039,0.01-0.072,0.027-0.101c0.02-0.029,0.055-0.052,0.102-0.069
					c0.049-0.017,0.115-0.031,0.197-0.044c0.082-0.012,0.182-0.018,0.297-0.018c0.121,0,0.221,0.006,0.301,0.018
					c0.08,0.012,0.145,0.026,0.193,0.044c0.047,0.017,0.082,0.04,0.102,0.069c0.018,0.029,0.027,0.063,0.027,0.101v8.117h3.367
					c0.043,0,0.08,0.011,0.111,0.033c0.031,0.022,0.059,0.053,0.08,0.094c0.021,0.042,0.037,0.096,0.047,0.164
					C350.846,265.329,350.852,265.411,350.852,265.508z"/>
				<path style="fill:#FFFFFF;" d="M357.098,265.508c0,0.097-0.006,0.178-0.016,0.243c-0.01,0.065-0.025,0.121-0.047,0.167
					c-0.021,0.046-0.049,0.08-0.08,0.102c-0.031,0.022-0.068,0.033-0.111,0.033h-4.15c-0.111,0-0.217-0.038-0.314-0.112
					c-0.1-0.075-0.148-0.207-0.148-0.396v-8.69c0-0.039,0.01-0.072,0.027-0.101c0.02-0.029,0.055-0.052,0.102-0.069
					c0.049-0.017,0.115-0.031,0.197-0.044c0.082-0.012,0.182-0.018,0.297-0.018c0.121,0,0.221,0.006,0.301,0.018
					c0.08,0.012,0.145,0.026,0.193,0.044c0.047,0.017,0.082,0.04,0.102,0.069c0.018,0.029,0.027,0.063,0.027,0.101v8.117h3.367
					c0.043,0,0.08,0.011,0.111,0.033c0.031,0.022,0.059,0.053,0.08,0.094c0.022,0.042,0.037,0.096,0.047,0.164
					C357.092,265.329,357.098,265.411,357.098,265.508z"/>
			</g>
		</g>
	</g>
</g>
</svg>
